v -0.02093600 0.02466700 0.01320100
v 0.02183700 0.01886800 0.02262100
v 0.02183700 0.01380300 0.02262100
v -0.00498400 0.01959300 0.04582100
v -0.01875900 -0.00722900 0.01174700
v 0.00805800 0.03264300 0.00522500
v 0.00008600 0.03844700 0.02769400
v -0.00135800 0.00292500 0.00014700
v 0.00805800 -0.00069600 0.03421100
v -0.01803400 0.00728000 0.03711800
v 0.01531000 0.00365400 0.00884900
v 0.01458600 0.02829300 0.03494300
v -0.01440800 0.02684400 0.03856700
v -0.01368400 0.02249400 0.00304900
v 0.01966000 0.03119500 0.01682500
v -0.01005800 0.03626900 0.01682500
v 0.00805800 0.00944800 0.04291800
v -0.02310900 -0.00142500 0.01029800
v 0.01748700 0.01525100 0.00522500
v -0.00716100 -0.00142500 0.03639200
v 0.00225900 -0.00432700 0.00957200
v -0.02310900 0.01090100 0.02914300
v 0.00008600 0.02684400 0.00014700
v 0.00371200 0.02466700 0.04436700
v 0.01893600 0.00944800 0.03204500
v -0.02093600 -0.00650000 0.01900100
v -0.01151100 0.00509800 0.00087400
v 0.01168400 0.03699300 0.02044900
v -0.00498800 -0.00577500 0.02334300
v -0.01223500 0.03554500 0.02624000
v -0.02310900 0.02104600 0.02189800
v 0.01531000 0.00147600 0.02190300
v -0.00353500 0.03409200 0.00667400
v 0.00153500 0.03409200 0.03639200
v 0.00225900 0.03844700 0.01464900
v 0.01023500 0.01959300 0.00087400
v -0.00063800 0.01090100 0.04509400
v -0.00643700 0.03191400 0.03856700
v 0.02183700 0.01669500 0.01319600
v 0.01603400 0.02684000 0.00667400
v 0.01313300 0.01742000 0.04001600
v 0.01966000 0.02611600 0.02914300
v 0.01240800 0.03481600 0.02914300
v 0.00516100 -0.00432700 0.01682100
v -0.02093600 0.00509800 0.00667400
v 0.00661000 0.00872400 0.00014700
v -0.01875900 -0.00360300 0.00667400
v -0.01731000 0.02612000 0.00812300
v -0.01440800 0.00944800 0.04074300
v -0.00498400 0.01959300 -0.00057900
v -0.02383800 -0.00287800 0.01682500
v -0.02021200 0.01669100 0.03493800
v -0.01223500 0.02466700 0.04219200
v 0.00008600 -0.00142500 0.00377200
v 0.01821200 0.00437800 0.01609800
v -0.00643700 0.03844700 0.02696700
v -0.02166000 -0.00069600 0.02624000
v 0.00878700 0.00365400 0.03929400
v -0.02021200 0.02684400 0.02334300
v -0.00135800 -0.00359800 0.03276700
v -0.01223500 -0.00287800 0.03276700
v 0.00371200 0.02031700 0.04582100
v 0.01096000 0.03481600 0.01029800
v 0.01240800 0.00002300 0.02986500
f 25 58 64
f 3 2 25
f 26 5 29
f 16 1 30
f 1 18 31
f 23 14 33
f 6 23 33
f 24 12 34
f 7 28 35
f 33 16 35
f 6 33 35
f 23 6 36
f 30 13 38
f 24 34 38
f 2 3 39
f 15 2 39
f 11 19 39
f 39 19 40
f 36 6 40
f 19 36 40
f 15 39 40
f 12 24 41
f 17 25 41
f 41 25 42
f 2 15 42
f 25 2 42
f 12 41 42
f 28 7 43
f 15 28 43
f 34 12 43
f 7 34 43
f 42 15 43
f 12 42 43
f 5 21 44
f 21 11 44
f 29 5 44
f 11 32 44
f 18 1 45
f 14 27 45
f 19 11 46
f 36 19 46
f 23 36 46
f 5 18 47
f 27 8 47
f 18 45 47
f 45 27 47
f 1 16 48
f 33 14 48
f 16 33 48
f 45 1 48
f 14 45 48
f 37 4 49
f 20 37 49
f 14 23 50
f 8 27 50
f 27 14 50
f 46 8 50
f 23 46 50
f 18 5 51
f 5 26 51
f 31 18 51
f 22 31 51
f 22 10 52
f 31 22 52
f 10 49 52
f 52 49 53
f 4 24 53
f 38 13 53
f 24 38 53
f 49 4 53
f 13 52 53
f 21 5 54
f 11 21 54
f 8 46 54
f 46 11 54
f 5 47 54
f 47 8 54
f 3 25 55
f 32 11 55
f 25 32 55
f 39 3 55
f 11 39 55
f 16 30 56
f 34 7 56
f 7 35 56
f 35 16 56
f 30 38 56
f 38 34 56
f 10 22 57
f 22 51 57
f 51 26 57
f 25 17 58
f 37 20 58
f 17 37 58
f 30 1 59
f 13 30 59
f 1 31 59
f 52 13 59
f 31 52 59
f 26 29 60
f 44 9 60
f 29 44 60
f 9 58 60
f 58 20 60
f 49 10 61
f 20 49 61
f 10 57 61
f 57 26 61
f 60 20 61
f 26 60 61
f 24 4 62
f 4 37 62
f 37 17 62
f 41 24 62
f 17 41 62
f 28 15 63
f 35 28 63
f 6 35 63
f 40 6 63
f 15 40 63
f 32 25 64
f 9 44 64
f 44 32 64
f 58 9 64

