v 0.00873200 -0.11307500 0.04955900
v -0.01837400 -0.11425300 0.03305900
v -0.01837400 -0.11307500 0.03305900
v -0.03841100 -0.11307500 0.04955900
v -0.02308100 -0.11778900 0.04955900
v -0.00424000 -0.11661000 0.04366400
v -0.00070000 -0.11425300 0.03659800
v -0.03251300 -0.11425300 0.03895400
v 0.00048100 -0.11661000 0.04955900
v -0.01954600 -0.11661000 0.04130900
v -0.00541200 -0.11307500 0.03423800
v -0.03487100 -0.11543200 0.04838000
v 0.00873200 -0.11425300 0.04720100
v -0.00777000 -0.11778900 0.04838000
v -0.01130900 -0.11543200 0.03659800
v -0.02897900 -0.11307500 0.03659800
v 0.00283900 -0.11307500 0.03895400
v -0.02662100 -0.11543200 0.03895400
v -0.02544300 -0.12486000 0.05191600
v 0.02641000 -0.11307500 0.05191600
v 0.02641000 -0.11307500 0.05073800
v -0.05608900 -0.11307500 0.05309400
v 0.00283800 -0.12132400 0.05545200
v -0.05019400 -0.11425500 0.04955900
v 0.00636700 -0.12132400 0.04955900
v -0.04312000 -0.11543400 0.05545200
v 0.01462000 -0.11425500 0.05545200
v -0.03958300 -0.12132400 0.05427200
v 0.02405200 -0.11307500 0.04955900
v -0.02190600 -0.12368000 0.04955900
v -0.04429900 -0.12014500 0.05073800
v -0.00778200 -0.12486000 0.05309400
v 0.01579900 -0.11896700 0.05427200
v -0.02544300 -0.12250100 0.05545200
v -0.05491000 -0.11307500 0.05427200
v 0.02523100 -0.11307500 0.05427200
v -0.05608900 -0.11307500 0.05073800
v 0.00636700 -0.12250100 0.05073800
v -0.01954800 -0.12486000 0.05427200
v -0.01014000 -0.12486000 0.05073800
v 0.01933600 -0.11779000 0.05073800
v -0.05608900 -0.11425500 0.05309400
v 0.00401700 -0.12250100 0.05427200
v -0.04076200 -0.11307500 0.04955900
v 0.02523100 -0.11425500 0.05427200
v -0.04901500 -0.11661100 0.04955900
v -0.03722500 -0.12250100 0.05073800
v -0.05019100 -0.01172000 0.00005900
v -0.01249200 0.00596000 0.00359500
v -0.01249200 0.00596000 0.00241600
v -0.01249200 -0.03764700 0.00241600
v -0.06315100 -0.03764700 0.00359500
v -0.05372700 -0.03764700 -0.00111900
v -0.01249200 0.00123900 -0.00111900
v -0.01249200 -0.03764700 0.00005900
v -0.04076300 -0.00111300 0.00359500
v -0.03252000 -0.00111300 -0.00111900
v -0.05961900 -0.03410800 -0.00111900
v -0.05726300 -0.01761000 0.00359500
v -0.01249200 -0.00700800 -0.00111900
v -0.02545200 0.00477800 0.00241600
v -0.05490300 -0.02114500 -0.00111900
v -0.06197500 -0.02821800 0.00241600
v -0.01249200 0.00242200 0.00359500
v -0.04429900 -0.00346900 0.00241600
v -0.01956000 0.00360000 0.00005900
v -0.05961900 -0.03764700 0.00359500
v -0.03958700 -0.00464700 -0.00111900
v -0.03370000 0.00242200 0.00241600
v -0.05726300 -0.01761000 0.00241600
v -0.05961900 -0.03764700 -0.00111900
v -0.03016400 0.00360000 0.00359500
v 0.02640300 -0.02232100 -0.00111900
v -0.01129900 0.00596000 0.00359500
v -0.00422900 0.00478000 0.00359500
v -0.01247800 -0.03057500 0.00241600
v 0.03229900 -0.03057500 0.00359500
v -0.01247800 0.00124300 -0.00111900
v -0.01247800 -0.03057500 0.00005900
v 0.01815500 -0.00582700 0.00241600
v 0.02876200 -0.03057500 -0.00111900
v 0.00402000 -0.00111400 -0.00111900
v 0.02640300 -0.01524700 0.00359500
v -0.01247800 0.00242300 0.00359500
v -0.01129900 -0.00818400 -0.00111900
v 0.01933400 -0.01172100 -0.00111900
v 0.01933400 -0.03057500 -0.00111900
v 0.01344300 -0.00229000 0.00359500
v 0.03229900 -0.02703800 0.00241600
v 0.00048700 0.00360000 0.00241600
v -0.00894100 0.00360000 0.00005900
v 0.02640300 -0.01524700 0.00241600
v 0.02876200 -0.03057500 0.00359500
v 0.01344300 -0.00229000 0.00241600
v -0.05845300 -0.10246200 0.04602300
v -0.09026700 -0.07536800 0.05073600
v -0.09026700 -0.07536800 0.05191600
v -0.07141500 -0.10364200 0.05073600
v -0.05845300 -0.10364200 0.05427300
v -0.07965600 -0.07300400 0.04602300
v -0.08319100 -0.07300400 0.05427300
v -0.07965600 -0.09303600 0.05427300
v -0.07612100 -0.08597400 0.04602300
v -0.05963000 -0.11189600 0.05309400
v -0.05845300 -0.09892600 0.05073600
v -0.08319100 -0.08832700 0.04956000
v -0.07965600 -0.07300400 0.05073600
v -0.08908400 -0.07300400 0.05427300
v -0.05845300 -0.09892600 0.04602300
v -0.05845300 -0.11189600 0.05073600
v -0.06905800 -0.10482300 0.05427300
v -0.08201400 -0.07536800 0.04602300
v -0.06198800 -0.10128600 0.04602300
v -0.08908400 -0.07300400 0.04956000
v -0.08437200 -0.08714700 0.05309400
v -0.07965600 -0.09303600 0.04956000
v -0.05845300 -0.11071600 0.05427300
v -0.05845300 -0.10128600 0.05309400
v -0.07965600 -0.09421600 0.05309400
v -0.08908400 -0.07654000 0.04956000
v -0.05844600 -0.05650000 -0.00111900
v -0.01248200 -0.03764700 0.00241600
v -0.01248200 -0.03764700 0.00006000
v -0.01248200 -0.05886100 0.00241600
v -0.05137400 -0.03764700 0.00241600
v -0.05844600 -0.05886100 0.00241600
v -0.05844600 -0.03764700 -0.00111900
v -0.01248200 -0.05886100 0.00006000
v -0.04783700 -0.05886100 -0.00111900
v -0.05844600 -0.03764700 0.00123700
v -0.05372700 -0.03764700 -0.00111900
v 0.01108800 -0.10364400 0.02245200
v -0.01248200 -0.08832800 -0.00111900
v -0.01248200 -0.08597000 -0.00111900
v -0.01248200 -0.10482100 0.02245200
v 0.01933900 -0.08597000 0.01302000
v 0.00401400 -0.08714900 0.00006000
v -0.00776700 -0.10364400 0.01419900
v 0.01933900 -0.09304300 0.01302000
v 0.01933900 -0.09539900 0.02245200
v -0.01248200 -0.08597000 0.00123900
v -0.01248200 -0.10836000 0.02127300
v 0.00401400 -0.10128600 0.01419900
v 0.01815800 -0.08597000 0.00713400
v -0.01012400 -0.09068400 0.00006000
v 0.01815800 -0.10010900 0.02127300
v -0.00069300 -0.10717900 0.02127300
v 0.01815800 -0.08597000 0.01302000
v 0.01344200 -0.09657800 0.01302000
v -0.01248200 -0.09775000 0.00713400
v 0.00166500 -0.09775000 0.00949000
v 0.01698100 -0.09539900 0.02245200
v 0.01226200 -0.10246500 0.02009200
v -0.00894400 -0.10836000 0.02245200
v -0.00187300 -0.08597000 -0.00111900
v 0.01698100 -0.08950700 0.00831300
v -0.01248200 -0.10364400 0.02127300
v -0.00305100 -0.08950700 0.00006000
v -0.01012400 -0.09775000 0.00713400
v 0.03231000 -0.10953500 0.04956000
v 0.05351700 -0.08596800 0.05427300
v 0.05351700 -0.08715100 0.05427300
v 0.01933900 -0.10835700 0.05427300
v 0.04173100 -0.08596800 0.04838000
v 0.01933900 -0.10599900 0.04838000
v 0.02758900 -0.11306900 0.05427300
v 0.05351700 -0.08715100 0.04956000
v 0.04526700 -0.08596800 0.05427300
v 0.04054600 -0.10482100 0.05191600
v 0.02169700 -0.11306900 0.04956000
v 0.03701300 -0.09775600 0.04838000
v 0.01933900 -0.10599900 0.05191600
v 0.01933900 -0.11306900 0.05427300
v 0.04173100 -0.10246500 0.04956000
v 0.04880000 -0.09540000 0.05309400
v 0.01933900 -0.10953500 0.04838000
v 0.04173100 -0.08596800 0.05073800
v 0.03466100 -0.10835700 0.05427300
v 0.02641500 -0.11306900 0.04956000
v 0.02876700 -0.05885700 -0.00111900
v -0.01248200 -0.08596800 -0.00111900
v 0.00166100 -0.08596800 -0.00111900
v 0.02522800 -0.07300300 0.00359500
v -0.01248200 -0.03057500 0.00241600
v 0.02876700 -0.03057500 -0.00111900
v 0.03347900 -0.03175700 0.00359500
v 0.00166100 -0.08596800 0.00359500
v -0.01248200 -0.03057500 0.00005900
v -0.01248200 -0.07535100 0.00241600
v 0.03466000 -0.04589800 0.00241600
v 0.01461900 -0.08125000 0.00005900
v 0.01108900 -0.08596800 0.00359500
v 0.01933000 -0.03057500 -0.00111900
v 0.02876700 -0.03057500 0.00359500
v 0.03347900 -0.05532700 0.00359500
v -0.01248200 -0.07535100 -0.00111900
v 0.02168900 -0.07181600 -0.00111900
v -0.01248200 -0.08596800 0.00123800
v 0.03112100 -0.03883300 -0.00111900
v 0.02758600 -0.06945700 0.00241600
v 0.03112100 -0.05650400 0.00005900
v 0.03466000 -0.03647500 0.00241600
v 0.01461900 -0.08360900 0.00241600
v 0.03466000 -0.03057300 0.00477400
v 0.02876700 -0.00582800 0.01184500
v 0.02876700 -0.00582800 0.01066500
v 0.01344600 -0.00700800 0.00477400
v 0.03701600 -0.03057300 0.01184500
v 0.02523200 -0.01172100 0.00359500
v 0.03937200 -0.02232300 0.01066500
v 0.02994500 -0.03057300 0.00359500
v 0.02405400 -0.00700800 0.01184500
v 0.01344600 -0.00582800 0.00359500
v 0.03229800 -0.02350300 0.00359500
v 0.03347900 -0.01054100 0.01066500
v 0.04055300 -0.03057300 0.01184500
v 0.02170100 -0.00582800 0.00477400
v 0.02994500 -0.03057300 0.00477400
v 0.03466000 -0.01643500 0.00830800
v 0.03937200 -0.02232300 0.01184500
v 0.01462700 -0.00700800 0.00595200
v 0.04055300 -0.02585900 0.01066500
v 0.02051400 -0.00582600 0.00477400
v -0.00894500 0.01421000 0.01184500
v -0.00894500 0.01421000 0.01066500
v -0.01130300 0.00242500 0.00477400
v 0.02287200 -0.00582600 0.01184500
v 0.01816000 0.00478100 0.01066500
v 0.00166200 0.00478100 0.00359500
v -0.01248200 0.01067400 0.01184500
v 0.01108600 -0.00582600 0.00359500
v -0.01248200 0.00713800 0.00359500
v 0.02876700 -0.00464700 0.01184500
v 0.00638200 0.01067400 0.01066500
v 0.01580200 -0.00228900 0.00359500
v 0.01226100 0.00831700 0.01184500
v -0.01248200 0.00478100 0.00713200
v 0.02758800 -0.00464700 0.00948800
v -0.00540800 0.01185300 0.00830800
v 0.00638200 0.00595900 0.00595200
v -0.01248200 0.01421000 0.01066500
v -0.01130300 0.00242500 0.00359500
v 0.01108600 -0.00582600 0.00477400
v -0.05962600 -0.08950200 0.01891400
v -0.07258600 -0.07300400 0.02834500
v -0.07140700 -0.07300400 0.02716300
v -0.05844600 -0.09067900 0.02834500
v -0.05844600 -0.07300400 0.00713300
v -0.07494500 -0.07654400 0.02716300
v -0.07023100 -0.07418300 0.01773900
v -0.05962600 -0.09539600 0.02834500
v -0.05844600 -0.07300400 0.01066900
v -0.06080500 -0.07889800 0.01066900
v -0.06669900 -0.08478500 0.02245000
v -0.07612500 -0.07300400 0.02834500
v -0.05844600 -0.08950200 0.01891400
v -0.06669900 -0.08832300 0.02716300
v -0.06669900 -0.08007700 0.01773900
v -0.05962600 -0.07418300 0.00713300
v -0.07023100 -0.07300400 0.01773900
v -0.07023100 -0.07536200 0.02834500
v -0.05844600 -0.09893200 0.03424000
v -0.08201800 -0.07536300 0.04484300
v -0.08201800 -0.07536300 0.04602300
v -0.07258500 -0.07300400 0.02834500
v -0.05844600 -0.09893200 0.04602300
v -0.07023200 -0.09067700 0.03777100
v -0.07847800 -0.07300400 0.04484300
v -0.07258500 -0.08125500 0.02834500
v -0.05844600 -0.09186000 0.02834500
v -0.06316500 -0.10010800 0.04602300
v -0.06080700 -0.09657000 0.03070300
v -0.07729900 -0.07300400 0.02952500
v -0.07729900 -0.08361100 0.04366500
v -0.05962500 -0.08949800 0.02952500
v -0.07729900 -0.07772200 0.03306000
v -0.05962500 -0.10128800 0.03895100
v -0.07140600 -0.09186000 0.04602300
v -0.08201800 -0.07300400 0.04602300
v -0.05962500 -0.09539300 0.02834500
v -0.06905800 -0.08832100 0.03070300
v -0.05844600 -0.10246800 0.04602300
v -0.07258500 -0.07300400 0.02952500
v -0.08083900 -0.07418300 0.03777100
v -0.06433900 -0.09774900 0.04012800
v -0.07376400 -0.08361100 0.03306000
v -0.07847800 -0.06122100 0.02244800
v -0.05844600 -0.07182300 0.01066900
v -0.05844600 -0.07300400 0.01066900
v -0.05962600 -0.05532500 0.00006200
v -0.07612200 -0.05650500 0.02598500
v -0.07258900 -0.07300400 0.02009300
v -0.07140700 -0.07300400 0.02598500
v -0.05844600 -0.05650500 0.00477700
v -0.06552000 -0.06711000 0.00831100
v -0.07494500 -0.05532500 0.01537800
v -0.05962600 -0.07182300 0.00595400
v -0.08083900 -0.05532500 0.02598500
v -0.07494500 -0.07300400 0.02598500
v -0.07140700 -0.06004100 0.01184600
v -0.05962600 -0.05886400 0.00006200
v -0.05844600 -0.05532500 0.00359900
v -0.05844600 -0.07300400 0.00713400
v -0.06905700 -0.05650500 0.00831100
v -0.06669700 -0.07182300 0.01184600
v -0.07494500 -0.06357800 0.01773600
v -0.07729900 -0.06828600 0.02480500
v -0.07022800 -0.07182300 0.02480500
v -0.05844600 -0.05886400 0.00006200
v -0.07729900 -0.05532500 0.02598500
v -0.07612500 -0.04942900 0.01537700
v -0.05844600 -0.05296600 0.00359600
v -0.05844600 -0.05532500 0.00359600
v -0.07729900 -0.05532500 0.02598800
v -0.07847800 -0.03764700 0.02598800
v -0.05962500 -0.03764700 -0.00111900
v -0.06669900 -0.05532500 0.00595700
v -0.08201800 -0.03882700 0.02480700
v -0.05844600 -0.03764700 0.00241800
v -0.08083900 -0.05532500 0.02480700
v -0.07023200 -0.03764700 0.00831300
v -0.06080700 -0.05414500 0.00006100
v -0.06198600 -0.04589900 0.00006100
v -0.05844600 -0.05061000 -0.00111900
v -0.07729900 -0.05061000 0.02598800
v -0.07612500 -0.03764700 0.01537700
v -0.07376400 -0.05414500 0.01302100
v -0.07140600 -0.04707300 0.00949200
v -0.08201800 -0.04589900 0.02598800
v -0.08083900 -0.04589900 0.02245100
v -0.07847800 -0.05532500 0.02009400
v -0.08319800 -0.06946300 0.05309400
v -0.09615700 -0.05179200 0.05073800
v -0.09615700 -0.05179200 0.05191600
v -0.08673400 -0.03764700 0.05073800
v -0.08083900 -0.07300400 0.04838000
v -0.09026500 -0.07300400 0.05427300
v -0.09144400 -0.03764700 0.05427300
v -0.08908700 -0.03764700 0.04838000
v -0.09144400 -0.07064300 0.04956000
v -0.09498000 -0.03764700 0.05427300
v -0.09615700 -0.04236400 0.04956000
v -0.08437700 -0.07300400 0.05427300
v -0.08791300 -0.06003500 0.04838000
v -0.08083900 -0.07064300 0.05073800
v -0.08673400 -0.03764700 0.04838000
v -0.09498000 -0.05885900 0.05309400
v -0.09615700 -0.03764700 0.05073800
v -0.08908700 -0.03764700 0.05309400
v -0.09026500 -0.07300400 0.04956000
v -0.09498000 -0.05297200 0.05427300
v -0.09498000 -0.05649800 0.04956000
v -0.03604800 -0.09068200 0.00595200
v -0.01248200 -0.08243200 0.00123900
v -0.01248200 -0.09068200 0.00595200
v -0.01248200 -0.09068200 0.00006000
v -0.04783900 -0.08243200 0.00595200
v -0.03604800 -0.08361100 -0.00111900
v -0.02544700 -0.09421700 0.00477300
v -0.01248200 -0.08243200 -0.00111900
v -0.01484300 -0.09539600 0.00595200
v -0.02309000 -0.08832500 -0.00111900
v -0.04311900 -0.08714600 0.00477300
v -0.04076500 -0.08243200 0.00595200
v -0.03958800 -0.08243200 0.00006000
v -0.03016100 -0.08832500 0.00006000
v -0.03369100 -0.09185800 0.00477300
v -0.04194800 -0.08361100 0.00595200
v -0.05844600 -0.09068100 0.01891600
v -0.05844600 -0.09068100 0.02127300
v -0.05844600 -0.06593200 0.00713100
v -0.04194800 -0.09774900 0.02127300
v -0.04666200 -0.08596800 0.00595200
v -0.04312700 -0.10010900 0.01773700
v -0.05844600 -0.07418600 0.00595200
v -0.05726600 -0.08596800 0.02127300
v -0.05726600 -0.06593200 0.00713100
v -0.05019700 -0.08949800 0.01066900
v -0.04194800 -0.08832100 0.00595200
v -0.04430600 -0.10128900 0.02127300
v -0.04194800 -0.08361100 0.00713100
v -0.05490800 -0.08243700 0.00831000
v -0.05726600 -0.06593200 0.00595200
v -0.05373100 -0.09539500 0.02009500
v -0.04430600 -0.09068100 0.00831000
v -0.04194800 -0.10128900 0.02009500
v -0.05844600 -0.08596800 0.01420100
v -0.03251300 -0.10246500 0.01537900
v -0.03958400 -0.08478900 0.00713100
v -0.03958400 -0.08478900 0.00595200
v -0.01248200 -0.09186300 0.00713100
v -0.04076700 -0.09775000 0.02127300
v -0.01248200 -0.10482300 0.02127300
v -0.01719800 -0.09657100 0.00595200
v -0.04194600 -0.09068300 0.00713100
v -0.01248200 -0.10718200 0.01891600
v -0.04076700 -0.10246500 0.02127300
v -0.02545200 -0.10718200 0.02009500
v -0.03015900 -0.09422100 0.00595200
v -0.01248200 -0.09540000 0.00595200
v -0.02309000 -0.10246500 0.01302500
v -0.04194600 -0.09892900 0.01537900
v -0.04194600 -0.08478900 0.00713100
v -0.01601800 -0.10364200 0.02127300
v -0.03133900 -0.09892900 0.01066900
v -0.02545200 -0.10718200 0.02127300
v -0.04194600 -0.09775000 0.02127300
v -0.03841100 -0.10364200 0.02009500
v -0.01248200 -0.10482300 0.01537900
v -0.01248200 -0.09186300 0.00595200
v -0.04194600 -0.08832900 0.00595200
v -0.07848200 -0.00346800 0.04838000
v -0.05255300 0.02717400 0.05309400
v -0.05255300 0.02717400 0.04956000
v -0.07730100 0.00950000 0.05191600
v -0.07848200 -0.00700400 0.05309400
v -0.05255300 0.01656500 0.04838000
v -0.08555100 -0.00582300 0.05427300
v -0.05255300 0.02009800 0.05309400
v -0.05727100 0.02481600 0.04838000
v -0.08673200 -0.00582300 0.04956000
v -0.07612300 -0.00700400 0.04838000
v -0.06905400 0.01538800 0.05427300
v -0.06905400 0.01774300 0.04956000
v -0.08201500 -0.00700400 0.05427300
v -0.06434300 0.02127900 0.05309400
v -0.07965600 0.00596300 0.04956000
v -0.05255300 0.01656500 0.04956000
v -0.06552100 0.01302600 0.05427300
v -0.08673200 -0.00464500 0.05309400
v -0.05962900 0.02481600 0.04956000
v -0.07612300 0.01067100 0.05309400
v -0.08673200 -0.00700400 0.04956000
v -0.05491200 0.02717400 0.05309400
v -0.04665800 -0.00346700 0.00359500
v -0.03723200 0.01774600 0.02245200
v -0.03723200 0.01774600 0.02127200
v -0.05255300 0.00949600 0.02009100
v -0.05137500 -0.01525400 0.00477400
v -0.03723200 -0.00346700 0.00359500
v -0.03841100 0.01303000 0.02245200
v -0.05255300 0.00595900 0.02245200
v -0.03841100 0.00595900 0.00713200
v -0.05255300 -0.00935900 0.00359500
v -0.04547900 0.00949600 0.01420100
v -0.04901600 0.00124600 0.00830900
v -0.03723200 -0.00346700 0.00477400
v -0.03723200 0.00124600 0.00359500
v -0.05255300 -0.01525400 0.00359500
v -0.04665800 0.01420900 0.02127200
v -0.03841100 0.01185100 0.01302300
v -0.05255300 0.00595900 0.01537700
v -0.04665800 0.00831700 0.02245200
v -0.05019400 0.01185100 0.02245200
v -0.03487300 0.00478200 0.00477400
v -0.01248700 0.02128100 0.02245200
v -0.01248700 0.01892100 0.02245200
v -0.03723000 0.01774200 0.02245200
v -0.03487300 -0.00229000 0.00477400
v -0.01248700 0.00714200 0.00359500
v -0.02544600 0.01656500 0.01420100
v -0.01248700 0.00360300 0.00477400
v -0.03487300 0.01420700 0.02245200
v -0.03723000 -0.00229000 0.00359500
v -0.01602100 0.02128100 0.02009100
v -0.03723000 0.01420700 0.01537700
v -0.02544600 0.02128100 0.02127200
v -0.02309200 0.01184900 0.00830900
v -0.01248700 0.01538900 0.01184600
v -0.02662300 0.00596100 0.00359500
v -0.03723000 0.01420700 0.02245200
v -0.01248700 0.01656500 0.02009100
v -0.02898000 0.01184900 0.00949100
v -0.03723000 0.00124700 0.00359500
v -0.01248700 0.00360300 0.00359500
v -0.03605000 0.01656500 0.01773600
v -0.05255300 0.02010600 0.04484500
v -0.01248200 0.03778100 0.05191600
v -0.01248200 0.03778100 0.04955800
v -0.01248200 0.02717400 0.04484500
v -0.05137300 0.01892600 0.05191600
v -0.05137300 0.02952900 0.05191600
v -0.01248200 0.03188600 0.05309500
v -0.03016400 0.03542200 0.04838200
v -0.05137300 0.01656700 0.04484500
v -0.03840900 0.03424500 0.05309500
v -0.02662700 0.02952900 0.04484500
v -0.05255300 0.02128500 0.05309500
v -0.01248200 0.02835000 0.04955800
v -0.04312000 0.03188600 0.04838200
v -0.05137300 0.01656700 0.04720200
v -0.05255300 0.02717400 0.04838200
v -0.02545000 0.03660200 0.05309500
v -0.02898800 0.03660200 0.04955800
v -0.04076700 0.02599900 0.04484500
v -0.01248200 0.02952900 0.05191600
v -0.05255300 0.02835000 0.05309500
v -0.01248200 0.02952900 0.04484500
v -0.01955400 0.03660200 0.04838200
v -0.00305400 -0.11307500 0.04130700
v -0.02426800 -0.10718300 0.02127300
v -0.02426800 -0.10482600 0.02127300
v -0.02426800 -0.11189400 0.04130900
v -0.00305400 -0.10482600 0.02363500
v -0.00777000 -0.11307500 0.03070500
v -0.02426800 -0.11307500 0.03187800
v -0.00423300 -0.10836100 0.02245400
v -0.00305400 -0.11189400 0.04130700
v -0.02190700 -0.10836100 0.02127300
v -0.02426800 -0.10482600 0.02363100
v -0.00305400 -0.11307500 0.03188000
v -0.02426800 -0.11307500 0.04130900
v -0.01248400 -0.10482600 0.02127300
v -0.01248400 -0.10836100 0.02127300
v -0.00305400 -0.10718000 0.02245200
v 0.01933900 -0.10953600 0.05427300
v 0.01698000 -0.10953600 0.05427300
v 0.01816000 -0.09657500 0.02481000
v 0.01933900 -0.10600100 0.03306100
v -0.00305400 -0.11189600 0.04248700
v 0.00166100 -0.11307500 0.03423900
v 0.01933900 -0.11307500 0.05073500
v 0.01933900 -0.10011300 0.02245200
v -0.00187500 -0.10364900 0.02363200
v 0.00519700 -0.11189600 0.05191500
v 0.00872800 -0.10600100 0.02363200
v 0.01698000 -0.10718000 0.05191500
v 0.00755700 -0.11307500 0.05309300
v -0.00305400 -0.11307500 0.03306100
v 0.01580100 -0.09657500 0.02363200
v 0.00990700 -0.11071700 0.03423900
v 0.01933900 -0.09657500 0.02245200
v 0.00284000 -0.10718000 0.02245200
v 0.01933900 -0.10600100 0.04955700
v 0.01933900 -0.11307500 0.05427300
v -0.00305400 -0.10482500 0.02245200
v -0.00305400 -0.11307500 0.04248700
v 0.02051800 -0.09539600 0.01656200
v 0.04173100 -0.08596800 0.03541400
v 0.04173100 -0.08714700 0.03541400
v 0.01933900 -0.10128800 0.03541400
v 0.01933900 -0.08596800 0.01302800
v 0.02405600 -0.10364500 0.03423400
v 0.03348100 -0.08714700 0.02009700
v 0.03819200 -0.08596800 0.03541400
v 0.02169700 -0.08596800 0.00949000
v 0.03348100 -0.09539600 0.03187600
v 0.01933900 -0.10482500 0.03187600
v 0.02287700 -0.09657200 0.02009700
v 0.01933900 -0.08832900 0.00949000
v 0.03348100 -0.09657200 0.03541400
v 0.04173100 -0.08714700 0.03305600
v 0.02523300 -0.08714700 0.01184800
v 0.03348100 -0.08596800 0.02009700
v 0.03583700 -0.08596800 0.03305600
v 0.02169700 -0.10482500 0.03541400
v 0.02877100 -0.09186300 0.02009700
v 0.02169700 -0.10364500 0.03069900
v 0.02758900 -0.09892900 0.02952100
v 0.02052200 -0.10717900 0.03777500
v 0.04526700 -0.08597000 0.04837900
v 0.04526700 -0.08714900 0.04837900
v 0.04172700 -0.08597000 0.03541700
v 0.01933900 -0.10482100 0.04720000
v 0.03230300 -0.10128600 0.04720000
v 0.03819400 -0.08597000 0.03541700
v 0.01933900 -0.10246500 0.03541700
v 0.03348100 -0.09775000 0.03659600
v 0.04172700 -0.08597000 0.04837900
v 0.02169700 -0.10836000 0.04837900
v 0.04055200 -0.09186300 0.04013100
v 0.02523500 -0.10364400 0.03541700
v 0.03819400 -0.08597000 0.03777500
v 0.04172700 -0.08832800 0.03541700
v 0.01933900 -0.10836000 0.04837900
v 0.02759200 -0.10482100 0.04602100
v 0.04290900 -0.09068400 0.04837900
v 0.01933900 -0.10246500 0.03777500
v 0.01933900 -0.10600000 0.03541700
v 0.04526700 -0.08714900 0.04484300
v 0.03701400 -0.09657800 0.04366500
v 0.01934200 -0.08596500 0.00713000
v 0.03701700 -0.06122000 0.00948700
v 0.03701700 -0.06475700 0.00948700
v 0.03230100 -0.06122000 0.00359500
v 0.00401700 -0.08478600 0.00477400
v 0.01462500 -0.08478600 0.00948700
v 0.02404800 -0.07653700 0.00359500
v 0.02994000 -0.06122000 0.00713000
v 0.02758800 -0.08007200 0.00948700
v 0.00401700 -0.08596500 0.00359500
v 0.02758800 -0.06122000 0.00359500
v 0.03230100 -0.06240000 0.00948700
v 0.03348000 -0.07182800 0.00830800
v 0.01226700 -0.08596500 0.00359500
v 0.02169300 -0.08596500 0.00830800
v 0.03230100 -0.06357700 0.00359500
v 0.01462500 -0.08596500 0.00948700
v 0.04762200 -0.03175900 0.01773500
v 0.02876700 -0.06121600 0.00359500
v 0.03230300 -0.06121600 0.00359500
v 0.04644400 -0.06239600 0.02009500
v 0.02994800 -0.03057500 0.00477600
v 0.04408600 -0.03057800 0.02009500
v 0.03583900 -0.03647200 0.00359500
v 0.03937300 -0.06239600 0.01655600
v 0.04408600 -0.04707100 0.01184700
v 0.03937100 -0.05767800 0.00830900
v 0.04880300 -0.05178400 0.01891400
v 0.03348400 -0.03057500 0.00359500
v 0.04290900 -0.06239600 0.02009500
v 0.02876700 -0.05767800 0.00477600
v 0.04762200 -0.03057800 0.02009500
v 0.04408600 -0.06239600 0.01537900
v 0.03583900 -0.04706800 0.00359500
v 0.04055200 -0.03529100 0.00830900
v 0.04055200 -0.03057800 0.00948800
v 0.04762200 -0.03883000 0.01655600
v 0.02994800 -0.03057500 0.00359500
v 0.04880300 -0.03529400 0.02009500
v 0.03348400 -0.06003900 0.00359500
v 0.06648100 -0.03293600 0.05191400
v 0.05351700 -0.06239600 0.04248800
v 0.05587500 -0.06239600 0.04248800
v 0.06412200 -0.06239600 0.05427300
v 0.05587500 -0.03057800 0.05073600
v 0.05705500 -0.03057800 0.04248800
v 0.05469700 -0.06239600 0.05191400
v 0.06648100 -0.04942800 0.04955700
v 0.06058700 -0.03057800 0.05427300
v 0.05469700 -0.03057800 0.04248800
v 0.06412200 -0.06239600 0.04955700
v 0.05823100 -0.05296600 0.04248800
v 0.05823100 -0.06239600 0.05427300
v 0.05351700 -0.06121300 0.04838000
v 0.06530200 -0.03057800 0.04955700
v 0.06530200 -0.03529400 0.05427300
v 0.05823100 -0.03411700 0.04248800
v 0.06648100 -0.05060800 0.05309300
v 0.05823100 -0.03057800 0.05309300
v 0.05469700 -0.03057800 0.04602500
v 0.06648100 -0.04000600 0.04955700
v 0.03702000 -0.01525400 0.01184500
v 0.05469600 -0.02586100 0.03541400
v 0.05469600 -0.03057500 0.03541400
v 0.04644500 -0.01407500 0.03423500
v 0.03819700 -0.03057500 0.01302600
v 0.04526600 -0.02939600 0.01538400
v 0.04997900 -0.01407500 0.03187700
v 0.03230300 -0.01407500 0.01302600
v 0.05115600 -0.02821700 0.03541400
v 0.04762000 -0.02232500 0.02127600
v 0.03230300 -0.01643300 0.01302600
v 0.05351600 -0.03057500 0.02951900
v 0.04173300 -0.03057500 0.01184500
v 0.04173300 -0.01407500 0.01773900
v 0.04173300 -0.02232500 0.01302600
v 0.04997900 -0.01407500 0.03541400
v 0.05351600 -0.02115000 0.03423500
v 0.03230300 -0.01643300 0.01184500
v 0.04762000 -0.01643300 0.03541400
v 0.05233700 -0.03057500 0.03541400
v 0.04997900 -0.02939600 0.02245500
v 0.04055200 -0.00111300 0.02834300
v 0.01698200 0.00124500 0.01184500
v 0.01698200 0.00124500 0.01302600
v 0.03113000 -0.01407500 0.01184500
v 0.04644100 -0.01407500 0.03541400
v 0.03583300 0.00242400 0.03541400
v 0.03937300 -0.01289600 0.01538400
v 0.02405600 0.00242400 0.01302600
v 0.04998100 -0.01289600 0.03423500
v 0.04055200 0.00242400 0.03541400
v 0.03113000 -0.00582600 0.01184500
v 0.03348200 0.00242400 0.02245500
v 0.03583300 -0.01407500 0.01184500
v 0.02994800 -0.01289600 0.01302600
v 0.03583300 0.00124500 0.03541400
v 0.03937300 -0.00700300 0.02009700
v 0.04762300 -0.01053700 0.03069800
v 0.01698200 0.00242400 0.01184500
v 0.04998100 -0.01407500 0.03541400
v 0.04644100 -0.00582600 0.03423500
v 0.04408300 -0.01407500 0.02245500
v 0.05351500 -0.01290300 0.04837900
v 0.03701700 0.00124500 0.03541700
v 0.03701700 0.00124500 0.03777500
v 0.05233600 -0.03057500 0.03541700
v 0.05469500 -0.02939600 0.04837900
v 0.05351500 -0.01996700 0.03541700
v 0.04409200 0.00242400 0.04837900
v 0.04291300 0.00006600 0.03541700
v 0.04055400 0.00124500 0.04837900
v 0.05823100 -0.03057500 0.04720000
v 0.05587200 -0.03057500 0.03541700
v 0.04997900 -0.00818400 0.04131000
v 0.05705200 -0.02468000 0.04484300
v 0.05233600 -0.03057500 0.03777500
v 0.04644900 0.00006600 0.04720000
v 0.05469500 -0.03057500 0.04720000
v 0.04055400 0.00242400 0.03541700
v 0.03937600 0.00124500 0.04602100
v 0.04762400 -0.00700500 0.03541700
v 0.03701700 0.00242400 0.03777500
v 0.05233600 -0.01407500 0.03895400
v 0.05823100 -0.02821700 0.04837900
v 0.05705200 -0.02821700 0.04013100
v 0.06412300 -0.02232500 0.05309400
v 0.04055300 0.00124500 0.04838000
v 0.04055300 0.00124500 0.04956000
v 0.05587100 -0.03057500 0.05073800
v 0.06058800 -0.01172100 0.04956000
v 0.04409000 0.00242400 0.05309400
v 0.05822900 -0.03057500 0.04838000
v 0.05234200 0.00242400 0.05309400
v 0.06058800 -0.03057500 0.05427300
v 0.06530300 -0.03057500 0.04956000
v 0.05234200 0.00242400 0.04956000
v 0.05587100 -0.00582600 0.05427300
v 0.04998400 -0.00465000 0.04838000
v 0.05705100 -0.02939600 0.05309400
v 0.06412300 -0.03057500 0.05427300
v 0.05822900 -0.00582600 0.05191600
v 0.05587100 -0.03057500 0.04838000
v 0.04291000 0.00006600 0.05191600
v 0.06176600 -0.01407500 0.05309400
v 0.06530300 -0.02703800 0.04956000
v 0.05705100 -0.02114600 0.04838000
v 0.04409000 0.00242400 0.04838000
v 0.02051800 0.01774400 0.04838100
v 0.03701100 0.02010300 0.05191500
v 0.03701100 0.02010300 0.04955900
v 0.05233900 0.00242400 0.05191500
v 0.04290600 0.00242400 0.04720200
v 0.04290600 0.00242400 0.05309500
v 0.02523400 0.02010300 0.05309500
v 0.02405500 0.02010300 0.04720200
v 0.04526100 0.01067500 0.04838100
v 0.04644300 0.01067500 0.05309500
v 0.03937300 0.00242400 0.04720200
v 0.02169700 0.01892300 0.05191500
v 0.05233900 0.00360500 0.04955900
v 0.03937300 0.00242400 0.04955900
v 0.01933900 0.02010300 0.04720200
v 0.04290600 0.01538700 0.05073700
v 0.03583900 0.02010300 0.05309500
v 0.03819300 0.01774400 0.04838100
v 0.05116000 0.00478300 0.05309500
v 0.03583900 0.01185200 0.04720200
v 0.03347800 0.02010300 0.04838100
v -0.00894400 0.03778100 0.05191500
v -0.00894400 0.03778100 0.05073700
v -0.01248200 0.02835500 0.04955900
v 0.02405200 0.02010300 0.05309500
v 0.02169100 0.02952900 0.05309500
v 0.00284300 0.03542300 0.04838100
v 0.01580300 0.02010300 0.04720200
v -0.01248200 0.03188600 0.05309500
v -0.01248200 0.03070900 0.04720200
v 0.03465600 0.02246100 0.04955900
v 0.03347800 0.02010300 0.05309500
v 0.01462000 0.03188600 0.04838100
v 0.00402000 0.03542300 0.05309500
v -0.01248200 0.03660100 0.04838100
v 0.01343800 0.02599700 0.04720200
v 0.01109200 0.03424200 0.04955900
v -0.01248200 0.03660100 0.05309500
v -0.01248200 0.02835500 0.04720200
v -0.01248200 0.02952900 0.05191500
v 0.02051400 0.02010300 0.05191500
v 0.03583900 0.02128300 0.05191500
v 0.00166500 0.03660100 0.04955900
v -0.08791000 -0.05886400 0.04838000
v -0.07494800 -0.07300400 0.02599000
v -0.07612700 -0.07182300 0.02599000
v -0.07730500 -0.05650500 0.02599000
v -0.07966300 -0.07182300 0.04838000
v -0.08319400 -0.07300400 0.04602000
v -0.08319400 -0.05650500 0.02952700
v -0.08555100 -0.05532500 0.04838000
v -0.07259200 -0.07182300 0.02834800
v -0.08201500 -0.07064500 0.03659800
v -0.07848400 -0.05532500 0.02952700
v -0.08555100 -0.05532500 0.03541900
v -0.07966300 -0.06357800 0.02599000
v -0.08437300 -0.06239800 0.03541900
v -0.07966300 -0.07300400 0.04838000
v -0.08083700 -0.05532500 0.02599000
v -0.07259200 -0.07300400 0.02599000
v -0.07966300 -0.07300400 0.03306200
v -0.08555100 -0.06475100 0.04248500
v -0.08791000 -0.05532500 0.04484100
v -0.08437300 -0.07064500 0.04838000
v -0.08437300 -0.05768400 0.04838000
v -0.08908900 -0.03764700 0.04719900
v -0.08084000 -0.05532500 0.02599000
v -0.07848200 -0.05532500 0.02599000
v -0.08790800 -0.05532500 0.04838000
v -0.07848200 -0.03764700 0.02716900
v -0.08555300 -0.04942900 0.04838000
v -0.08555300 -0.03764700 0.03306200
v -0.08673100 -0.05414500 0.03777000
v -0.08555300 -0.03764700 0.04719900
v -0.08437300 -0.05532500 0.04602000
v -0.08201800 -0.03764700 0.02599000
v -0.08319800 -0.05296600 0.02834800
v -0.07848200 -0.05532500 0.02834800
v -0.08908900 -0.04707300 0.04602000
v -0.08790800 -0.04118500 0.04012900
v -0.08908900 -0.03764700 0.04838000
v -0.08555300 -0.04942900 0.03306200
v -0.03841300 -0.06829200 -0.00111900
v -0.05844400 -0.07182200 0.00477300
v -0.05608700 -0.07535900 0.00477300
v -0.03841300 -0.05886100 0.00241600
v -0.05726600 -0.05886100 -0.00111900
v -0.03841300 -0.08242700 0.00006000
v -0.04194800 -0.08242700 0.00595200
v -0.05844400 -0.06357900 0.00595200
v -0.04666300 -0.07653500 -0.00111900
v -0.04901600 -0.08242700 0.00595200
v -0.05844400 -0.05886100 0.00359400
v -0.03841300 -0.05886100 0.00006000
v -0.03841300 -0.08242700 0.00359400
v -0.05373000 -0.07064500 0.00006000
v -0.04077000 -0.08125100 -0.00111900
v -0.04901600 -0.08242700 0.00477300
v -0.04666300 -0.05886100 -0.00111900
v -0.05844400 -0.06122100 0.00006000
v -0.05844400 -0.07182200 0.00595200
v -0.05608700 -0.06475800 0.00595200
v -0.03841100 -0.08242700 -0.00111900
v -0.01248200 -0.05886100 0.00241600
v -0.01248200 -0.07535900 0.00241600
v -0.01248200 -0.07653500 -0.00111900
v -0.03841100 -0.05886100 0.00006000
v -0.03841100 -0.08242700 0.00241600
v -0.03841100 -0.05886100 0.00241600
v -0.01248200 -0.08242700 0.00123700
v -0.01248200 -0.05886100 0.00006000
v -0.03841100 -0.06947100 -0.00111900
v -0.01248200 -0.08242700 -0.00111900
v -0.01602000 -0.08007200 0.00241600
v -0.05844600 -0.08714600 0.02127300
v -0.04430400 -0.11071800 0.04130700
v -0.04666300 -0.10953900 0.04012700
v -0.05844600 -0.10010600 0.04601800
v -0.04312500 -0.10717800 0.04484100
v -0.04312500 -0.10128500 0.02127300
v -0.05844600 -0.09775800 0.02952700
v -0.04430400 -0.09657800 0.02245600
v -0.05844600 -0.10364300 0.04601800
v -0.05726700 -0.08714600 0.02245600
v -0.04784000 -0.10010600 0.02127300
v -0.05608700 -0.10010600 0.04601800
v -0.04312500 -0.11071800 0.04601800
v -0.05490800 -0.10246400 0.03306100
v -0.05844600 -0.09186500 0.02127300
v -0.04548400 -0.10599900 0.02952700
v -0.04312500 -0.09775800 0.02127300
v -0.04312500 -0.10953900 0.03659300
v -0.05490800 -0.10599900 0.04484100
v -0.05490800 -0.09539900 0.02127300
v -0.04430400 -0.11189600 0.04720200
v -0.05726700 -0.10011000 0.05073600
v -0.05726700 -0.10011000 0.04602300
v -0.05844600 -0.11307500 0.05073600
v -0.04312500 -0.11189600 0.05427300
v -0.05844600 -0.10482500 0.05427300
v -0.04430400 -0.10718100 0.04602300
v -0.05844600 -0.10364800 0.04602300
v -0.05726700 -0.11307500 0.05427300
v -0.04312500 -0.11307500 0.04956000
v -0.04666300 -0.11071600 0.04602300
v -0.04312500 -0.10836000 0.04956000
v -0.05608700 -0.10247000 0.05309400
v -0.04312300 -0.10953700 0.03542000
v -0.02427000 -0.11189400 0.04130500
v -0.02662800 -0.11189400 0.04602100
v -0.03958700 -0.09893300 0.02245600
v -0.04312300 -0.10953700 0.05191200
v -0.02427000 -0.10835900 0.02245600
v -0.03841000 -0.11307300 0.04130500
v -0.04312300 -0.10246900 0.02127700
v -0.02544900 -0.10364800 0.02127700
v -0.02898500 -0.11307300 0.03306200
v -0.04312300 -0.11307300 0.05427300
v -0.04312300 -0.09893300 0.02127700
v -0.02427000 -0.11307300 0.04130500
v -0.03487400 -0.10835900 0.02599200
v -0.02427000 -0.11307300 0.03188400
v -0.04194400 -0.10953700 0.05191200
v -0.02898500 -0.10718100 0.02127700
v -0.02544900 -0.10364800 0.02245600
v -0.03487400 -0.11307300 0.05191200
v -0.03841000 -0.10953700 0.03070500
v -0.04312300 -0.09893300 0.02363400
v -0.02427000 -0.10482600 0.02363400
v 0.05823100 -0.03764700 0.04012900
v 0.04644600 -0.04943200 0.02009500
v 0.04526700 -0.03529000 0.02009500
v 0.05469300 -0.04943200 0.04130800
v 0.05351600 -0.03057500 0.04130800
v 0.04880500 -0.03057500 0.02009500
v 0.05233700 -0.04943200 0.02481200
v 0.05823100 -0.04943200 0.04248800
v 0.04526700 -0.03057500 0.02245300
v 0.05469300 -0.03057500 0.03187600
v 0.05587200 -0.03882600 0.03187600
v 0.05705200 -0.03057500 0.04248800
v 0.04644600 -0.04943200 0.02245300
v 0.04998300 -0.04471800 0.02009500
v 0.05705200 -0.04707100 0.03541200
v 0.05116200 -0.03529000 0.02245300
v 0.05469300 -0.03764700 0.04248800
v -0.05962700 -0.01172200 0.00713100
v -0.07729800 -0.03764700 0.01773600
v -0.07729800 -0.03764700 0.01891600
v -0.06080700 -0.03764700 0.00359500
v -0.06198400 -0.00818300 0.01891600
v -0.06787300 -0.00818300 0.01773600
v -0.05255300 -0.00700400 0.00948900
v -0.06787300 -0.03057100 0.00713100
v -0.07376400 -0.03764700 0.01891600
v -0.05373600 -0.01054300 0.00359500
v -0.07258700 -0.01879200 0.01655900
v -0.05255300 -0.01172200 0.00831200
v -0.06434100 -0.03764700 0.00359500
v -0.06198400 -0.02467700 0.00359500
v -0.05255300 -0.01761600 0.00359500
v -0.06080700 -0.03764700 0.00477400
v -0.07376400 -0.01997400 0.01891600
v -0.05727000 -0.00700400 0.00831200
v -0.07494400 -0.03410700 0.01420000
v -0.07023000 -0.01997400 0.01302200
v -0.06669300 -0.00700400 0.01891600
v -0.07612100 -0.02703500 0.01773600
v -0.06551600 -0.02232500 0.00713100
v -0.05255300 -0.00936200 0.00948900
v -0.05255300 -0.00700400 0.00595300
v -0.06551600 -0.01289800 0.01184400
v -0.07140700 -0.03057100 0.01066800
v -0.07494400 -0.00700400 0.03070000
v -0.08437500 -0.03764700 0.03070000
v -0.08437500 -0.03764700 0.03305800
v -0.06316300 -0.00818300 0.01891800
v -0.07612300 -0.02467700 0.01891800
v -0.07494400 -0.03764700 0.01891800
v -0.07023500 -0.00818300 0.03187800
v -0.08083700 -0.03764700 0.03187800
v -0.08083700 -0.01761600 0.03305800
v -0.06787800 -0.00700400 0.01891800
v -0.07848000 -0.03764700 0.01891800
v -0.07141200 -0.00700400 0.03305800
v -0.06316300 -0.00818300 0.02009700
v -0.08201400 -0.02703500 0.02834300
v -0.07494400 -0.01525600 0.02245400
v -0.07494400 -0.03764700 0.02127500
v -0.08201400 -0.02115300 0.03187800
v -0.08083700 -0.03528900 0.03305800
v -0.07965700 -0.03410700 0.02127500
v -0.06316300 -0.00700400 0.02009700
v -0.08437500 -0.03175300 0.03187800
v -0.07612300 -0.00818300 0.03305800
v -0.07848400 -0.00700400 0.04013300
v -0.08908900 -0.03764700 0.04720000
v -0.08908900 -0.03764700 0.04837900
v -0.08201500 -0.03764700 0.03541800
v -0.07612800 -0.00818300 0.04837900
v -0.07258900 -0.00936200 0.03306100
v -0.08437400 -0.02821300 0.03306100
v -0.08319400 -0.01289800 0.04837900
v -0.08555000 -0.03764700 0.04837900
v -0.07612800 -0.00700400 0.03306100
v -0.08437400 -0.03764700 0.03306100
v -0.08555000 -0.02115300 0.04366400
v -0.07258900 -0.00818300 0.03659700
v -0.08083900 -0.01525600 0.03423900
v -0.07966300 -0.00700400 0.04837900
v -0.08673100 -0.03293200 0.03777500
v -0.08791000 -0.02821300 0.04720000
v -0.08201500 -0.03764700 0.03306100
v -0.07258900 -0.00700400 0.03659700
v -0.08201500 -0.01172200 0.04366400
v -0.08673100 -0.03764700 0.03659700
v -0.08673200 -0.00700400 0.04956000
v -0.09616000 -0.03764700 0.05073800
v -0.09616000 -0.03764700 0.05191600
v -0.07730300 -0.00936200 0.04838000
v -0.08201900 -0.00700400 0.05427300
v -0.08673200 -0.03764700 0.05073800
v -0.08908900 -0.03764700 0.04838000
v -0.09379900 -0.02703500 0.05427300
v -0.09026500 -0.03646800 0.05427300
v -0.09379900 -0.02349800 0.04956000
v -0.08790800 -0.00818300 0.05309400
v -0.07966200 -0.00936200 0.05309400
v -0.08084000 -0.00700400 0.04838000
v -0.07730300 -0.00818300 0.05073800
v -0.08673200 -0.03764700 0.04838000
v -0.09498100 -0.03764700 0.05427300
v -0.09144400 -0.01525600 0.05191600
v -0.08555600 -0.00700400 0.05427300
v -0.05962700 0.00949300 0.02951900
v -0.05491300 -0.00700400 0.00713300
v -0.05491300 -0.00582500 0.00713300
v -0.07258900 -0.00582500 0.02834200
v -0.05255700 0.00831500 0.02834200
v -0.06905100 -0.00700400 0.02951900
v -0.05255700 -0.00700400 0.01067000
v -0.05373400 0.00595900 0.01656200
v -0.06433700 -0.00111100 0.02009200
v -0.05255700 0.01303100 0.02951900
v -0.06787300 -0.00700400 0.02009200
v -0.05255700 -0.00464700 0.00713300
v -0.06433700 0.00360200 0.02598400
v -0.05491300 0.01185300 0.02598400
v -0.05962700 -0.00464700 0.01184700
v -0.06787300 0.00124700 0.02951900
v -0.05255700 0.00949300 0.02127200
v -0.05609100 0.00713800 0.02009200
v -0.05373700 0.01774100 0.03659800
v -0.07965800 -0.00700400 0.04720100
v -0.07965800 -0.00700400 0.04837800
v -0.06905100 -0.00700400 0.03070300
v -0.05255600 0.01656600 0.04837800
v -0.07140700 -0.00228900 0.02952500
v -0.06551900 0.01184800 0.04720100
v -0.05255600 0.01067300 0.02952500
v -0.07494300 -0.00700400 0.04720100
v -0.06316300 0.00713600 0.02952500
v -0.07258500 0.00125100 0.03777400
v -0.05373700 0.02010300 0.04837800
v -0.07376500 -0.00700400 0.02952500
v -0.07494300 0.00125100 0.04837800
v -0.05255600 0.01421000 0.02952500
v -0.06198500 0.01184800 0.03659800
v -0.07729900 -0.00582300 0.03777400
v -0.05255600 0.01067300 0.03188200
v -0.05962900 0.01656600 0.04720100
v -0.05609300 0.01302900 0.02952500
v -0.05255600 0.02010300 0.04720100
v -0.06787300 0.00713600 0.03895200
v -0.07612100 -0.00700400 0.04837800
v -0.06905100 -0.00700400 0.02952500
v -0.07965800 -0.00582300 0.04720100
v -0.03487800 0.02599400 0.03659300
v -0.05255200 0.00713900 0.02245400
v -0.05019500 0.00713900 0.02245400
v -0.05255200 0.01657000 0.04484200
v -0.03487800 0.02363600 0.04484200
v -0.03369600 0.01538900 0.02245400
v -0.05019500 0.01421300 0.02481200
v -0.05255200 0.02010000 0.04248400
v -0.03723500 0.01892200 0.02245400
v -0.03369600 0.02717400 0.04484200
v -0.04312400 0.02245800 0.03423500
v -0.05137200 0.00713900 0.02481200
v -0.04312400 0.02481500 0.04484200
v -0.03369600 0.02010000 0.02363300
v -0.05255200 0.01067700 0.02245400
v -0.03369600 0.01538900 0.02363300
v -0.05255200 0.01657000 0.03188300
v -0.05137200 0.01657000 0.04484200
v -0.03605500 0.02363600 0.03070400
v -0.03841400 0.02599400 0.04012800
v -0.04312400 0.01657000 0.02245400
v -0.02898100 0.02128200 0.02245400
v -0.01248200 0.02953100 0.04484200
v -0.02544400 0.02953100 0.04484200
v -0.03251700 0.01656700 0.02481200
v -0.01248200 0.01892600 0.02245400
v -0.03369600 0.02481700 0.04484200
v -0.01248200 0.02717200 0.03188300
v -0.01248200 0.02717200 0.04484200
v -0.03369600 0.02599300 0.03541400
v -0.01248200 0.02246000 0.02245400
v -0.03369600 0.01656700 0.02245400
v -0.02308900 0.02717200 0.03306200
v -0.02308900 0.02953100 0.04130500
v -0.03251700 0.02835200 0.04484200
v -0.03369600 0.02010500 0.02245400
v -0.01248200 0.01892600 0.02363300
v -0.03016000 0.02481700 0.04484200
v -0.02073500 0.02363800 0.02481200
v -0.01248200 0.02953100 0.04012800
v -0.02898100 0.02481700 0.02952700
v 0.02994600 -0.07889400 0.00948800
v 0.04408600 -0.06239900 0.01773800
v 0.04408600 -0.06475700 0.01773800
v 0.02405700 -0.08478700 0.01655800
v 0.03348000 -0.06239900 0.00948800
v 0.01698400 -0.08478700 0.00948800
v 0.03112400 -0.08596500 0.01655800
v 0.03937200 -0.06357800 0.01773800
v 0.03819400 -0.06475700 0.00948800
v 0.03937200 -0.07535800 0.01655800
v 0.02641300 -0.08596500 0.01773800
v 0.02287600 -0.08596500 0.00948800
v 0.01698400 -0.08478700 0.01066800
v 0.03348000 -0.06239900 0.01066800
v 0.03348000 -0.08360800 0.01773800
v 0.04172800 -0.06239900 0.01302500
v 0.04290500 -0.06829100 0.01655800
v 0.03701300 -0.07418100 0.01302500
v 0.03112400 -0.08242900 0.01302500
v 0.03348500 -0.08478700 0.01774000
v 0.05351700 -0.06239900 0.03659300
v 0.05351700 -0.06239900 0.03305600
v 0.04055300 -0.06357800 0.01774000
v 0.03819800 -0.08478700 0.03541500
v 0.04526600 -0.08360800 0.03541500
v 0.04408600 -0.06947000 0.01891700
v 0.02758900 -0.08478700 0.01891700
v 0.04997900 -0.06239900 0.03541500
v 0.04526600 -0.06239900 0.01774000
v 0.03937500 -0.08596500 0.02716600
v 0.05115700 -0.07182800 0.03423600
v 0.03937500 -0.08596500 0.03659300
v 0.04173100 -0.06239900 0.02009700
v 0.02758900 -0.08596500 0.01774000
v 0.04408600 -0.07418100 0.02245600
v 0.05115700 -0.06475700 0.02834200
v 0.04997900 -0.07535800 0.03659300
v 0.02877100 -0.08478700 0.02127600
v 0.04290800 -0.08596500 0.03659300
v 0.04526600 -0.08125000 0.03187700
v 0.03937500 -0.07653600 0.01774000
v 0.05115700 -0.06239900 0.03659300
v 0.05705300 -0.06357800 0.04720000
v 0.03937400 -0.08596500 0.03659500
v 0.03937400 -0.08596500 0.03895400
v 0.04644700 -0.08596500 0.04838000
v 0.04644700 -0.08242900 0.03659500
v 0.05115700 -0.06239900 0.03659500
v 0.05351400 -0.06239900 0.04838000
v 0.04291300 -0.08360800 0.04838000
v 0.05469400 -0.06357800 0.03659500
v 0.05351400 -0.07418100 0.04838000
v 0.03937400 -0.08478700 0.03895400
v 0.05233700 -0.07182800 0.03777500
v 0.04409000 -0.08596500 0.03659500
v 0.04998000 -0.08125000 0.04720000
v 0.05705300 -0.06239900 0.04838000
v 0.05115700 -0.06239900 0.03895400
v 0.04173300 -0.08478700 0.04720000
v 0.06294300 -0.06593600 0.05427300
v 0.04291000 -0.08596500 0.04838000
v 0.04291000 -0.08596500 0.05073800
v 0.05469200 -0.06239900 0.05191600
v 0.06058800 -0.07418100 0.04956000
v 0.05351700 -0.08596500 0.05427300
v 0.05704900 -0.06239900 0.04838000
v 0.04644600 -0.08478700 0.05427300
v 0.05469200 -0.08596500 0.04956000
v 0.06412400 -0.06239900 0.04956000
v 0.05822900 -0.06239900 0.05427300
v 0.05351700 -0.06357800 0.04838000
v 0.05940800 -0.07771500 0.05309400
v 0.04998500 -0.08125000 0.04838000
v 0.04291000 -0.08478700 0.05073800
v 0.06412400 -0.06475700 0.05309400
v 0.04762600 -0.06239500 0.02127400
v 0.05823100 -0.04943400 0.04248800
v 0.05823100 -0.05179100 0.04248800
v 0.05233800 -0.06239500 0.04130800
v 0.04644600 -0.04943400 0.02245300
v 0.04998200 -0.04943400 0.02127400
v 0.05351600 -0.06239500 0.03187600
v 0.04408900 -0.06239500 0.02245300
v 0.05469400 -0.04943400 0.04248800
v 0.05587400 -0.06239500 0.04248800
v 0.05587400 -0.05179100 0.03305800
v 0.04880400 -0.05650300 0.02009500
v 0.04408900 -0.05768100 0.02127400
v 0.05705200 -0.05532600 0.03777000
v 0.04644600 -0.04943400 0.02009500
v 0.04408900 -0.06239500 0.02009500
v 0.05351600 -0.05532600 0.04248800
v 0.01108800 0.00949900 0.01184500
v -0.00423100 0.02363900 0.02716300
v -0.00423100 0.02363900 0.02598600
v -0.01248200 0.01185300 0.01420400
v 0.01226700 0.01421000 0.02598600
v -0.01248200 0.01538600 0.01184500
v -0.01248200 0.02128100 0.02716300
v 0.00990800 0.00478200 0.01302500
v 0.01108800 0.01774300 0.02245000
v -0.00069400 0.01774300 0.01656100
v 0.01226700 0.01892400 0.02716300
v -0.01248200 0.02363900 0.02480700
v 0.01226700 0.00478200 0.01184500
v -0.01012300 0.01067700 0.01184500
v 0.00990800 0.01538600 0.02716300
v -0.01248200 0.02010200 0.02598600
v 0.01226700 0.01421000 0.01774000
v -0.01012300 0.02128100 0.02009300
v 0.00165900 0.01303400 0.01184500
v 0.00637300 0.02128100 0.02598600
v 0.00755300 0.01538600 0.01656100
v 0.00872800 0.02599300 0.04012800
v -0.01248200 0.02128200 0.02716600
v -0.01248200 0.02128200 0.02834500
v 0.01226700 0.01656700 0.02952400
v -0.01012300 0.02717200 0.04720200
v -0.00894300 0.02599300 0.02952400
v 0.01108800 0.02246000 0.04720200
v 0.01108800 0.02010500 0.02716600
v -0.00069400 0.02953100 0.04720200
v -0.01248200 0.02953100 0.04130600
v 0.01226700 0.02599300 0.04720200
v -0.00069400 0.02717200 0.03541900
v -0.01248200 0.02481700 0.02716600
v 0.00872800 0.01656700 0.02834500
v -0.01248200 0.02953100 0.04720200
v 0.01226700 0.02246000 0.03306200
v -0.00069400 0.02363800 0.02716600
v -0.01248200 0.02717200 0.04602300
v 0.01226700 0.01656700 0.02716600
v -0.00305300 0.02835200 0.03777000
v 0.00990800 0.02363800 0.03306200
v 0.02051800 0.00242400 0.01184700
v 0.01344700 0.01892400 0.02834500
v 0.01344700 0.01892400 0.02716400
v 0.03466000 0.00360300 0.02598500
v 0.01226700 0.00360300 0.01302500
v 0.03112200 0.00242400 0.02834500
v 0.01344700 0.01185000 0.01538300
v 0.01226700 0.01538600 0.02834500
v 0.02404900 0.01067400 0.02245000
v 0.02641000 0.01185000 0.02834500
v 0.02287900 0.00360300 0.01302500
v 0.01226700 0.00832000 0.01184700
v 0.01462600 0.00242400 0.01184700
v 0.03466000 0.00242400 0.02834500
v 0.03229900 0.00360300 0.02245000
v 0.01226700 0.01892400 0.02716400
v 0.02287900 0.00713900 0.01656100
v 0.01698400 0.01421000 0.02127100
v 0.02641000 0.01185000 0.02716400
v 0.03701600 0.00242400 0.02952600
v 0.01462500 0.02481700 0.04720200
v 0.01462500 0.02481700 0.04484300
v 0.01344600 0.01538500 0.02952600
v 0.03937400 0.00242400 0.04720200
v 0.02994000 0.01420600 0.03777400
v 0.01580400 0.01892300 0.02834700
v 0.01226700 0.02245900 0.04720200
v 0.04291000 0.00360400 0.04720200
v 0.02994000 0.00360400 0.02834700
v 0.03111900 0.01538500 0.04720200
v 0.03465500 0.00713900 0.03070500
v 0.01226700 0.01892300 0.02834700
v 0.04055200 0.00478300 0.03895000
v 0.02169800 0.02010000 0.03895000
v 0.02876500 0.01067500 0.02834700
v 0.01226700 0.02363800 0.03777400
v 0.02523700 0.01538500 0.03188300
v 0.01226700 0.02127900 0.04484300
v 0.03230100 0.00242400 0.03070500
v 0.03819200 0.00831900 0.04248600
v 0.02405800 0.02010000 0.04602100
v 0.04291000 0.00242400 0.04484300
v 0.01226700 0.01656700 0.02834700
v 0.01462500 0.02245900 0.03541900
f 12 8 18
f 1 3 4
f 1 4 5
f 1 5 9
f 3 1 11
f 2 3 11
f 7 2 11
f 5 4 12
f 4 8 12
f 6 7 13
f 1 9 13
f 9 6 13
f 9 5 14
f 6 9 14
f 5 10 14
f 14 10 15
f 7 6 15
f 2 7 15
f 10 2 15
f 6 14 15
f 3 2 16
f 4 3 16
f 2 8 16
f 8 4 16
f 11 1 17
f 7 11 17
f 1 13 17
f 13 7 17
f 8 2 18
f 2 10 18
f 10 5 18
f 5 12 18
f 31 46 47
f 20 21 22
f 26 23 27
f 22 21 29
f 25 24 29
f 24 25 30
f 23 26 34
f 26 28 34
f 20 22 35
f 26 27 35
f 28 26 35
f 20 35 36
f 35 27 36
f 22 29 37
f 28 19 39
f 19 32 39
f 23 34 39
f 34 28 39
f 19 30 40
f 30 25 40
f 32 19 40
f 25 38 40
f 38 32 40
f 29 21 41
f 25 29 41
f 38 25 41
f 33 38 41
f 31 28 42
f 35 22 42
f 28 35 42
f 22 37 42
f 37 31 42
f 33 23 43
f 32 38 43
f 38 33 43
f 23 39 43
f 39 32 43
f 29 24 44
f 37 29 44
f 24 37 44
f 21 20 45
f 27 23 45
f 23 33 45
f 20 36 45
f 36 27 45
f 41 21 45
f 33 41 45
f 24 30 46
f 37 24 46
f 31 37 46
f 19 28 47
f 30 19 47
f 28 31 47
f 46 30 47
f 61 69 72
f 50 49 51
f 51 52 53
f 50 51 54
f 51 53 55
f 54 51 55
f 52 49 56
f 54 53 57
f 57 53 58
f 52 56 59
f 53 54 60
f 55 53 60
f 54 55 60
f 49 50 61
f 57 58 62
f 58 52 63
f 52 59 63
f 62 58 63
f 51 49 64
f 49 52 64
f 59 56 65
f 50 54 66
f 54 57 66
f 61 50 66
f 57 61 66
f 52 51 67
f 51 64 67
f 64 52 67
f 62 48 68
f 57 62 68
f 48 65 68
f 68 65 69
f 61 57 69
f 65 56 69
f 57 68 69
f 48 62 70
f 63 59 70
f 62 63 70
f 65 48 70
f 59 65 70
f 53 52 71
f 52 58 71
f 58 53 71
f 56 49 72
f 49 61 72
f 69 56 72
f 90 88 94
f 75 74 77
f 76 78 79
f 77 76 79
f 78 73 81
f 77 79 81
f 73 78 82
f 75 77 83
f 77 74 84
f 74 78 84
f 78 76 84
f 79 78 85
f 78 81 85
f 73 82 86
f 81 79 87
f 79 85 87
f 85 81 87
f 75 83 88
f 83 80 88
f 81 73 89
f 77 81 89
f 83 77 89
f 74 75 90
f 75 88 90
f 78 74 91
f 82 78 91
f 74 90 91
f 90 82 91
f 80 83 92
f 73 86 92
f 86 80 92
f 89 73 92
f 83 89 92
f 76 77 93
f 84 76 93
f 77 84 93
f 86 82 94
f 80 86 94
f 88 80 94
f 82 90 94
f 114 112 120
f 99 101 102
f 100 95 103
f 99 95 105
f 100 101 107
f 105 100 107
f 96 97 108
f 101 100 108
f 102 101 108
f 95 100 109
f 105 95 109
f 100 105 109
f 95 99 110
f 104 98 110
f 99 102 111
f 98 104 111
f 100 103 112
f 103 106 112
f 103 95 113
f 95 110 113
f 110 98 113
f 96 108 114
f 108 100 114
f 100 112 114
f 97 96 115
f 96 106 115
f 108 97 115
f 102 108 115
f 106 103 116
f 103 113 116
f 113 98 116
f 110 99 117
f 104 110 117
f 99 111 117
f 111 104 117
f 101 99 118
f 99 105 118
f 107 101 118
f 105 107 118
f 98 111 119
f 111 102 119
f 102 115 119
f 115 106 119
f 106 116 119
f 116 98 119
f 106 96 120
f 112 106 120
f 96 114 120
f 123 129 131
f 123 122 124
f 122 123 125
f 124 122 125
f 124 125 126
f 125 123 127
f 121 126 127
f 123 124 128
f 124 126 128
f 128 126 129
f 126 121 129
f 121 127 129
f 123 128 129
f 126 125 130
f 125 127 130
f 127 126 130
f 127 123 131
f 129 127 131
f 158 151 159
f 134 133 135
f 135 132 140
f 139 136 140
f 134 135 141
f 136 134 141
f 135 133 142
f 134 136 144
f 136 139 144
f 140 132 146
f 139 140 146
f 142 138 147
f 138 143 147
f 140 136 148
f 136 141 148
f 139 146 149
f 142 133 150
f 138 142 150
f 133 145 150
f 143 138 151
f 137 149 151
f 149 143 151
f 135 140 152
f 140 148 152
f 146 132 153
f 132 147 153
f 147 143 153
f 143 149 153
f 149 146 153
f 132 135 154
f 135 142 154
f 147 132 154
f 142 147 154
f 133 134 155
f 134 144 155
f 144 137 155
f 137 144 156
f 144 139 156
f 149 137 156
f 139 149 156
f 141 135 157
f 148 141 157
f 135 152 157
f 152 148 157
f 145 133 158
f 137 151 158
f 133 155 158
f 155 137 158
f 138 150 159
f 150 145 159
f 151 138 159
f 145 158 159
f 170 176 179
f 162 161 163
f 162 163 166
f 161 162 167
f 164 161 167
f 163 161 168
f 161 164 168
f 166 160 169
f 165 164 171
f 164 167 171
f 165 163 172
f 164 165 172
f 163 168 172
f 163 165 173
f 166 163 173
f 170 166 173
f 169 160 174
f 160 171 174
f 171 167 174
f 167 162 175
f 169 174 175
f 174 167 175
f 171 160 176
f 165 171 176
f 173 165 176
f 170 173 176
f 168 164 177
f 164 172 177
f 172 168 177
f 162 166 178
f 166 169 178
f 175 162 178
f 169 175 178
f 160 166 179
f 166 170 179
f 176 160 179
f 191 200 203
f 182 181 180
f 180 181 185
f 181 182 187
f 183 186 187
f 181 184 188
f 184 185 188
f 184 181 189
f 187 184 189
f 187 182 192
f 183 187 192
f 185 181 193
f 188 185 193
f 185 184 194
f 186 185 194
f 184 187 194
f 187 186 194
f 186 183 195
f 190 186 195
f 181 188 196
f 193 181 196
f 188 193 196
f 182 180 197
f 191 182 197
f 181 187 198
f 189 181 198
f 187 189 198
f 180 185 199
f 195 183 200
f 197 180 200
f 191 197 200
f 190 195 201
f 180 199 201
f 199 190 201
f 200 180 201
f 195 200 201
f 185 186 202
f 186 190 202
f 199 185 202
f 190 199 202
f 182 191 203
f 192 182 203
f 183 192 203
f 200 183 203
f 220 216 222
f 204 208 211
f 208 205 212
f 205 206 213
f 211 207 213
f 209 211 213
f 212 205 213
f 204 211 214
f 211 209 214
f 206 205 215
f 208 204 216
f 205 208 216
f 213 206 217
f 209 213 217
f 206 215 217
f 215 209 217
f 208 207 218
f 211 208 218
f 207 211 218
f 210 214 219
f 214 209 219
f 209 215 219
f 215 210 219
f 215 205 220
f 210 215 220
f 205 216 220
f 207 208 221
f 208 212 221
f 213 207 221
f 212 213 221
f 204 214 222
f 214 210 222
f 216 204 222
f 210 220 222
f 226 231 243
f 227 224 230
f 223 227 231
f 229 231 232
f 227 223 233
f 224 227 233
f 225 224 234
f 223 231 235
f 231 229 235
f 224 233 236
f 233 228 236
f 228 234 236
f 234 224 236
f 226 227 237
f 227 230 237
f 230 232 237
f 233 223 238
f 228 233 238
f 223 235 238
f 235 228 238
f 229 232 239
f 225 234 239
f 239 234 240
f 234 228 240
f 235 229 240
f 228 235 240
f 229 239 240
f 224 225 241
f 230 224 241
f 232 230 241
f 239 232 241
f 225 239 241
f 231 226 242
f 232 231 242
f 226 237 242
f 237 232 242
f 227 226 243
f 231 227 243
f 247 252 261
f 245 246 248
f 247 245 251
f 247 248 252
f 248 246 252
f 245 248 255
f 250 249 255
f 251 245 255
f 248 247 256
f 247 251 256
f 251 244 256
f 244 253 256
f 244 251 257
f 249 254 257
f 254 244 257
f 255 249 257
f 251 255 257
f 249 250 258
f 253 244 258
f 250 253 258
f 254 249 258
f 244 254 258
f 253 250 259
f 248 256 259
f 256 253 259
f 255 248 260
f 250 255 260
f 248 259 260
f 259 250 260
f 246 245 261
f 245 247 261
f 252 246 261
f 269 281 286
f 266 262 270
f 269 265 270
f 266 264 271
f 268 265 273
f 265 269 273
f 264 263 274
f 266 270 275
f 270 265 275
f 273 269 276
f 272 262 277
f 271 264 278
f 264 274 278
f 274 267 278
f 263 264 279
f 264 266 279
f 266 268 279
f 268 273 279
f 270 262 280
f 269 270 280
f 262 272 280
f 280 272 281
f 269 280 281
f 262 266 282
f 266 271 282
f 277 262 282
f 271 277 282
f 265 268 283
f 268 266 283
f 275 265 283
f 266 275 283
f 274 263 284
f 273 276 284
f 276 274 284
f 263 279 284
f 279 273 284
f 277 271 285
f 272 277 285
f 271 278 285
f 278 267 285
f 281 272 285
f 267 281 285
f 267 274 286
f 276 269 286
f 274 276 286
f 281 267 286
f 302 298 310
f 292 289 293
f 288 289 294
f 293 291 298
f 296 287 298
f 290 296 298
f 292 293 299
f 293 298 299
f 297 295 301
f 294 289 302
f 291 294 302
f 290 298 302
f 289 292 303
f 302 289 303
f 296 290 304
f 295 300 304
f 300 296 304
f 290 301 304
f 301 295 304
f 295 297 305
f 300 295 305
f 303 292 305
f 297 303 305
f 287 296 306
f 296 300 306
f 305 292 306
f 300 305 306
f 298 287 307
f 292 299 307
f 299 298 307
f 287 306 307
f 306 292 307
f 289 288 308
f 293 289 308
f 291 293 308
f 288 294 308
f 294 291 308
f 301 290 309
f 297 301 309
f 290 302 309
f 302 303 309
f 303 297 309
f 298 291 310
f 291 302 310
f 330 311 331
f 313 312 314
f 313 314 317
f 312 313 319
f 316 315 319
f 317 314 320
f 315 316 321
f 313 317 322
f 321 316 323
f 322 317 323
f 322 323 324
f 319 313 324
f 316 319 324
f 313 322 324
f 323 316 324
f 314 312 325
f 315 314 325
f 312 319 325
f 319 315 325
f 318 315 326
f 315 321 326
f 323 317 328
f 321 323 328
f 311 326 328
f 326 321 328
f 317 327 328
f 327 311 328
f 314 315 329
f 315 318 329
f 320 314 329
f 320 329 330
f 326 311 330
f 318 326 330
f 329 318 330
f 317 320 331
f 327 317 331
f 311 327 331
f 320 330 331
f 340 347 352
f 338 335 339
f 337 338 341
f 338 339 341
f 333 334 342
f 337 336 343
f 338 337 343
f 339 336 344
f 342 339 344
f 335 332 345
f 332 343 345
f 343 336 345
f 339 335 346
f 336 339 346
f 335 345 346
f 345 336 346
f 334 333 347
f 340 337 347
f 334 341 348
f 341 339 348
f 339 342 348
f 342 334 348
f 332 335 349
f 335 338 349
f 343 332 349
f 338 343 349
f 336 337 350
f 337 340 350
f 344 336 350
f 340 344 350
f 341 334 351
f 337 341 351
f 334 347 351
f 347 337 351
f 333 342 352
f 344 340 352
f 342 344 352
f 347 333 352
f 366 359 367
f 354 355 356
f 353 355 357
f 354 356 360
f 357 354 360
f 355 353 361
f 356 355 361
f 353 359 361
f 359 356 361
f 356 359 362
f 360 356 362
f 358 360 362
f 353 357 363
f 355 354 364
f 357 355 364
f 354 357 364
f 357 360 365
f 360 358 365
f 363 357 365
f 358 363 365
f 358 362 366
f 362 359 366
f 363 358 366
f 363 366 367
f 359 353 367
f 353 363 367
f 382 378 387
f 369 370 371
f 369 371 375
f 368 373 375
f 371 370 376
f 370 372 376
f 376 372 377
f 371 376 377
f 368 372 379
f 373 368 379
f 372 370 380
f 372 368 381
f 377 372 381
f 368 377 381
f 375 373 382
f 373 378 382
f 375 371 383
f 368 375 383
f 377 368 383
f 371 377 383
f 370 369 384
f 369 378 384
f 378 374 384
f 380 370 384
f 374 380 384
f 374 378 385
f 378 373 385
f 373 379 385
f 379 374 385
f 379 372 386
f 374 379 386
f 372 380 386
f 380 374 386
f 369 375 387
f 378 369 387
f 375 382 387
f 395 403 411
f 390 389 391
f 391 393 396
f 393 392 397
f 390 394 399
f 394 390 400
f 391 396 400
f 398 388 401
f 389 390 403
f 392 389 403
f 395 402 403
f 391 389 404
f 389 392 404
f 392 393 404
f 393 391 404
f 399 394 405
f 395 399 405
f 394 401 405
f 401 388 405
f 402 395 405
f 388 402 405
f 396 393 406
f 393 397 406
f 398 396 406
f 397 392 407
f 402 397 407
f 392 403 407
f 403 402 407
f 388 398 408
f 397 402 408
f 402 388 408
f 406 397 408
f 398 406 408
f 396 398 409
f 394 400 409
f 400 396 409
f 401 394 409
f 398 401 409
f 390 391 410
f 400 390 410
f 391 400 410
f 390 399 411
f 399 395 411
f 403 390 411
f 431 426 434
f 414 413 417
f 417 413 419
f 417 412 420
f 414 417 420
f 412 417 422
f 416 419 425
f 422 416 425
f 423 418 425
f 420 412 427
f 412 421 427
f 424 420 427
f 415 424 427
f 419 416 428
f 417 419 428
f 416 422 428
f 422 417 428
f 419 413 429
f 413 423 429
f 425 419 429
f 423 425 429
f 427 421 430
f 415 427 430
f 414 420 431
f 420 424 431
f 424 426 431
f 418 423 432
f 424 415 432
f 423 426 432
f 426 424 432
f 430 418 432
f 415 430 432
f 421 412 433
f 412 422 433
f 425 418 433
f 422 425 433
f 418 430 433
f 430 421 433
f 413 414 434
f 423 413 434
f 426 423 434
f 414 431 434
f 450 438 454
f 437 436 440
f 441 436 442
f 435 440 444
f 442 438 444
f 445 443 446
f 443 435 446
f 435 444 446
f 440 436 447
f 439 440 447
f 436 441 447
f 441 439 447
f 440 435 448
f 437 440 448
f 435 443 448
f 440 439 449
f 439 442 449
f 444 440 449
f 442 444 449
f 436 437 450
f 445 450 451
f 443 445 451
f 437 448 451
f 448 443 451
f 450 437 451
f 444 438 452
f 445 446 452
f 446 444 452
f 438 450 452
f 450 445 452
f 439 441 453
f 442 439 453
f 441 442 453
f 442 436 454
f 438 442 454
f 436 450 454
f 461 473 476
f 457 456 458
f 456 457 460
f 460 457 462
f 457 458 463
f 464 458 466
f 458 456 467
f 456 465 467
f 465 461 467
f 456 460 469
f 465 456 469
f 461 465 469
f 460 468 469
f 468 461 469
f 460 464 470
f 468 460 470
f 463 458 471
f 459 463 471
f 464 459 471
f 458 464 471
f 462 457 472
f 459 462 472
f 457 463 472
f 463 459 472
f 455 466 473
f 461 468 473
f 470 455 473
f 468 470 473
f 466 455 474
f 464 466 474
f 455 470 474
f 470 464 474
f 462 459 475
f 460 462 475
f 459 464 475
f 464 460 475
f 466 458 476
f 458 467 476
f 467 461 476
f 473 466 476
f 479 498 499
f 479 478 480
f 480 478 483
f 477 480 485
f 480 477 487
f 481 483 488
f 483 486 488
f 480 483 489
f 482 486 490
f 477 485 491
f 485 480 491
f 488 477 491
f 481 488 491
f 480 489 491
f 477 488 492
f 482 490 492
f 483 478 493
f 486 483 493
f 486 493 494
f 478 479 494
f 490 486 494
f 484 490 494
f 493 478 494
f 487 477 495
f 484 487 495
f 490 484 495
f 477 492 495
f 492 490 495
f 483 481 496
f 489 483 496
f 481 491 496
f 491 489 496
f 486 482 497
f 488 486 497
f 492 488 497
f 482 492 497
f 479 480 498
f 480 487 498
f 498 487 499
f 487 484 499
f 494 479 499
f 484 494 499
f 513 507 514
f 502 501 503
f 503 501 506
f 505 500 506
f 503 500 508
f 500 504 508
f 504 503 508
f 501 502 509
f 506 501 509
f 505 506 509
f 502 503 510
f 503 504 510
f 504 502 510
f 504 500 511
f 500 505 511
f 507 504 511
f 505 507 511
f 500 503 512
f 503 506 512
f 506 500 512
f 502 504 513
f 504 507 513
f 509 502 513
f 509 513 514
f 507 505 514
f 505 509 514
f 529 528 537
f 519 516 522
f 516 519 523
f 524 520 525
f 523 519 526
f 517 516 527
f 525 517 527
f 524 525 527
f 521 522 528
f 517 525 528
f 520 515 529
f 521 528 529
f 527 518 530
f 524 527 530
f 519 522 531
f 522 521 531
f 526 519 531
f 516 523 532
f 523 515 532
f 530 518 532
f 515 523 533
f 523 526 533
f 529 515 533
f 521 529 533
f 531 521 533
f 526 531 533
f 527 516 534
f 518 527 534
f 516 532 534
f 532 518 534
f 516 517 535
f 522 516 535
f 517 528 535
f 528 522 535
f 515 520 536
f 520 524 536
f 524 530 536
f 532 515 536
f 530 532 536
f 525 520 537
f 528 525 537
f 520 529 537
f 543 558 559
f 540 539 541
f 541 539 545
f 539 542 545
f 542 539 546
f 541 542 548
f 542 546 550
f 538 548 550
f 548 542 550
f 540 541 551
f 543 547 551
f 551 547 552
f 539 540 552
f 547 544 552
f 540 551 552
f 538 550 553
f 550 546 553
f 546 539 554
f 539 552 554
f 552 544 554
f 544 553 554
f 553 546 554
f 542 541 555
f 541 545 555
f 545 542 555
f 541 548 556
f 548 543 556
f 551 541 556
f 543 551 556
f 544 547 557
f 549 538 557
f 553 544 557
f 538 553 557
f 548 538 558
f 543 548 558
f 538 549 558
f 558 549 559
f 547 543 559
f 557 547 559
f 549 557 559
f 571 577 581
f 561 563 566
f 566 563 567
f 562 561 569
f 561 566 569
f 562 569 570
f 567 563 572
f 566 567 573
f 564 569 573
f 569 566 573
f 571 568 574
f 572 563 574
f 568 572 574
f 564 567 575
f 569 564 575
f 560 570 575
f 570 569 575
f 568 565 576
f 570 560 576
f 565 570 576
f 560 572 576
f 572 568 576
f 562 570 577
f 570 565 577
f 567 564 578
f 564 573 578
f 573 567 578
f 572 560 579
f 567 572 579
f 575 567 579
f 560 575 579
f 561 562 580
f 563 561 580
f 574 563 580
f 571 574 580
f 562 577 580
f 577 571 580
f 565 568 581
f 568 571 581
f 577 565 581
f 591 596 598
f 583 584 585
f 584 583 587
f 583 585 589
f 584 587 590
f 585 588 591
f 589 585 592
f 586 589 592
f 585 591 592
f 591 586 592
f 587 583 593
f 586 587 593
f 583 589 593
f 589 586 593
f 584 590 594
f 588 582 595
f 582 591 595
f 591 588 595
f 582 588 596
f 591 582 596
f 588 594 596
f 594 590 596
f 585 584 597
f 588 585 597
f 584 594 597
f 594 588 597
f 587 586 598
f 590 587 598
f 586 591 598
f 596 590 598
f 615 608 621
f 601 600 605
f 604 603 606
f 608 607 609
f 605 600 610
f 602 604 611
f 606 602 611
f 604 606 611
f 600 606 612
f 606 603 612
f 603 604 613
f 604 602 613
f 610 603 613
f 600 601 614
f 606 600 614
f 602 606 614
f 609 602 614
f 608 609 614
f 601 605 615
f 607 608 615
f 615 605 616
f 607 615 616
f 605 610 617
f 613 599 617
f 610 613 617
f 599 616 617
f 616 605 617
f 609 607 618
f 616 599 618
f 607 616 618
f 610 600 619
f 603 610 619
f 600 612 619
f 612 603 619
f 602 609 620
f 613 602 620
f 599 613 620
f 618 599 620
f 609 618 620
f 614 601 621
f 608 614 621
f 601 615 621
f 638 636 642
f 623 624 625
f 624 623 627
f 623 625 628
f 627 626 630
f 627 623 631
f 626 627 631
f 625 624 632
f 629 632 633
f 624 627 633
f 632 624 633
f 628 625 634
f 625 630 634
f 623 628 635
f 628 626 635
f 631 623 635
f 630 622 636
f 627 630 636
f 622 630 637
f 630 625 637
f 629 633 638
f 633 627 638
f 627 636 638
f 629 622 639
f 625 632 639
f 632 629 639
f 622 637 639
f 637 625 639
f 626 628 640
f 630 626 640
f 628 634 640
f 634 630 640
f 626 631 641
f 635 626 641
f 631 635 641
f 622 629 642
f 636 622 642
f 629 638 642
f 659 654 663
f 646 649 650
f 645 644 651
f 646 650 653
f 647 651 653
f 644 645 654
f 645 647 654
f 654 647 655
f 648 654 655
f 650 649 656
f 643 650 656
f 649 652 656
f 656 652 657
f 652 648 657
f 655 643 657
f 648 655 657
f 643 656 657
f 649 646 658
f 651 644 658
f 652 649 659
f 644 654 659
f 658 644 659
f 649 658 659
f 650 643 660
f 647 653 660
f 653 650 660
f 643 655 660
f 655 647 660
f 646 653 661
f 653 651 661
f 658 646 661
f 651 658 661
f 647 645 662
f 651 647 662
f 645 651 662
f 648 652 663
f 654 648 663
f 652 659 663
f 682 676 684
f 669 668 673
f 671 669 673
f 667 665 674
f 674 671 675
f 671 673 675
f 673 664 675
f 668 667 676
f 667 674 676
f 674 670 676
f 666 665 677
f 665 667 677
f 667 668 677
f 668 666 677
f 666 668 678
f 669 666 678
f 668 669 678
f 670 674 679
f 674 675 679
f 675 664 679
f 679 664 680
f 670 679 680
f 665 666 681
f 666 669 681
f 669 671 681
f 674 665 681
f 671 674 681
f 673 668 682
f 668 676 682
f 664 673 683
f 672 680 683
f 680 664 683
f 682 672 683
f 673 682 683
f 676 670 684
f 670 680 684
f 680 672 684
f 672 682 684
f 706 694 707
f 687 686 688
f 688 686 690
f 689 685 691
f 690 686 692
f 689 691 693
f 688 690 695
f 694 688 695
f 687 688 698
f 688 694 698
f 691 685 699
f 685 696 699
f 694 689 700
f 687 698 700
f 698 694 700
f 692 686 701
f 691 699 701
f 699 692 701
f 689 693 702
f 687 700 702
f 700 689 702
f 690 692 703
f 692 699 703
f 699 696 703
f 686 687 704
f 693 691 704
f 701 686 704
f 691 701 704
f 687 702 704
f 702 693 704
f 696 685 705
f 685 697 705
f 697 690 705
f 690 703 705
f 703 696 705
f 685 689 706
f 689 694 706
f 697 685 706
f 697 706 707
f 695 690 707
f 694 695 707
f 690 697 707
f 718 720 729
f 710 709 711
f 709 710 713
f 711 714 716
f 716 714 717
f 713 715 718
f 715 713 719
f 713 716 719
f 714 709 720
f 718 712 720
f 710 711 721
f 716 713 721
f 711 716 721
f 716 717 722
f 719 716 722
f 712 718 723
f 718 715 723
f 711 709 724
f 709 714 724
f 714 711 724
f 713 710 725
f 710 721 725
f 721 713 725
f 715 719 726
f 722 708 726
f 719 722 726
f 712 723 726
f 723 715 726
f 717 714 727
f 708 722 727
f 722 717 727
f 726 708 727
f 712 726 727
f 714 720 728
f 720 712 728
f 712 727 728
f 727 714 728
f 709 713 729
f 713 718 729
f 720 709 729
f 747 738 749
f 734 733 735
f 731 732 736
f 736 732 737
f 736 735 739
f 734 735 740
f 737 734 740
f 735 736 741
f 733 734 742
f 734 738 742
f 730 740 743
f 740 735 743
f 741 730 743
f 735 741 743
f 736 737 744
f 740 730 744
f 737 740 744
f 730 741 744
f 741 736 744
f 732 731 745
f 731 739 745
f 742 738 745
f 731 736 746
f 739 731 746
f 736 739 746
f 737 732 747
f 732 745 747
f 745 738 747
f 735 733 748
f 739 735 748
f 733 742 748
f 745 739 748
f 742 745 748
f 734 737 749
f 738 734 749
f 737 747 749
f 763 766 772
f 750 754 757
f 754 755 758
f 753 758 759
f 754 750 761
f 755 754 761
f 760 750 762
f 758 755 763
f 751 752 764
f 756 759 764
f 759 758 764
f 750 757 765
f 759 756 765
f 757 759 765
f 756 762 765
f 762 750 765
f 755 760 766
f 762 756 766
f 760 762 766
f 763 755 766
f 763 751 767
f 758 763 767
f 751 764 767
f 764 758 767
f 757 753 768
f 753 759 768
f 759 757 768
f 758 753 769
f 754 758 769
f 757 754 770
f 753 757 770
f 769 753 770
f 754 769 770
f 750 760 771
f 760 755 771
f 761 750 771
f 755 761 771
f 752 751 772
f 751 763 772
f 764 752 772
f 756 764 772
f 766 756 772
f 777 783 794
f 774 775 776
f 773 777 780
f 781 776 783
f 777 781 783
f 780 783 784
f 776 775 785
f 784 779 786
f 779 785 786
f 777 773 787
f 778 774 787
f 781 777 787
f 783 776 788
f 779 784 788
f 784 783 788
f 776 785 788
f 785 779 788
f 774 776 789
f 776 781 789
f 787 774 789
f 781 787 789
f 775 774 790
f 774 778 790
f 778 782 790
f 785 775 790
f 782 786 790
f 786 785 790
f 782 778 791
f 786 782 791
f 786 791 792
f 773 780 792
f 780 784 792
f 784 786 792
f 791 773 792
f 787 773 793
f 778 787 793
f 773 791 793
f 791 778 793
f 780 777 794
f 783 780 794
f 809 801 811
f 796 797 798
f 795 799 801
f 796 798 802
f 799 795 803
f 803 800 804
f 798 797 804
f 800 798 804
f 799 803 804
f 797 796 805
f 799 797 805
f 801 799 805
f 801 805 806
f 796 802 806
f 805 796 806
f 797 799 807
f 804 797 807
f 799 804 807
f 802 798 808
f 802 808 809
f 795 801 809
f 808 795 809
f 798 800 810
f 803 795 810
f 800 803 810
f 795 808 810
f 808 798 810
f 801 806 811
f 806 802 811
f 802 809 811
f 819 818 831
f 812 815 817
f 816 812 820
f 817 818 821
f 818 819 821
f 815 816 822
f 813 819 822
f 819 815 822
f 815 812 823
f 816 815 823
f 817 815 824
f 815 818 824
f 818 817 824
f 814 813 825
f 820 814 825
f 816 820 825
f 812 817 826
f 820 812 826
f 814 820 827
f 817 821 827
f 821 814 827
f 826 817 827
f 820 826 827
f 812 816 828
f 823 812 828
f 816 823 828
f 822 816 829
f 813 822 829
f 825 813 829
f 816 825 829
f 813 814 830
f 819 813 830
f 814 821 830
f 821 819 830
f 818 815 831
f 815 819 831
f 837 839 843
f 833 834 835
f 834 833 837
f 836 832 837
f 833 836 838
f 837 833 838
f 836 837 838
f 835 834 839
f 837 832 839
f 833 835 840
f 836 833 840
f 836 840 841
f 835 832 841
f 832 836 841
f 840 835 841
f 832 835 842
f 835 839 842
f 839 832 842
f 834 837 843
f 839 834 843
f 858 854 863
f 847 844 850
f 847 850 852
f 844 847 853
f 848 851 853
f 844 849 854
f 847 852 855
f 853 847 855
f 848 853 855
f 849 848 856
f 855 852 856
f 848 855 856
f 852 850 857
f 850 844 858
f 844 854 858
f 854 849 859
f 846 857 859
f 857 854 859
f 848 849 860
f 849 844 860
f 851 848 860
f 844 853 860
f 853 851 860
f 845 846 861
f 856 845 861
f 849 856 861
f 846 859 861
f 859 849 861
f 846 845 862
f 845 856 862
f 856 852 862
f 857 846 862
f 852 857 862
f 857 850 863
f 854 857 863
f 850 858 863
f 868 875 876
f 866 865 870
f 865 866 871
f 869 865 871
f 867 869 871
f 866 870 871
f 868 869 872
f 869 867 872
f 867 864 873
f 864 870 873
f 872 867 873
f 868 872 873
f 864 867 874
f 870 864 874
f 867 871 874
f 871 870 874
f 870 865 875
f 873 870 875
f 868 873 875
f 865 869 876
f 869 868 876
f 875 865 876
f 885 894 898
f 877 881 884
f 881 877 887
f 877 883 887
f 883 886 887
f 884 881 888
f 885 884 888
f 880 885 888
f 878 879 889
f 882 878 889
f 887 886 889
f 882 889 891
f 889 886 891
f 879 880 892
f 881 887 892
f 885 882 893
f 884 885 893
f 890 884 893
f 886 890 893
f 882 891 893
f 891 886 893
f 880 879 894
f 885 880 894
f 889 879 895
f 887 889 895
f 879 892 895
f 892 887 895
f 883 877 896
f 877 884 896
f 886 883 896
f 884 890 896
f 890 886 896
f 880 888 897
f 888 881 897
f 892 880 897
f 881 892 897
f 879 878 898
f 878 882 898
f 882 885 898
f 894 879 898
f 906 910 915
f 900 901 904
f 902 900 905
f 902 905 906
f 902 903 907
f 904 901 907
f 903 904 907
f 904 903 908
f 908 899 909
f 906 899 910
f 899 908 910
f 908 903 910
f 901 900 911
f 900 902 911
f 907 901 911
f 902 907 911
f 900 904 912
f 905 900 912
f 909 905 912
f 906 905 913
f 899 906 913
f 905 909 913
f 909 899 913
f 904 908 914
f 908 909 914
f 912 904 914
f 909 912 914
f 903 902 915
f 902 906 915
f 910 903 915
f 935 938 942
f 918 917 919
f 918 919 924
f 920 918 924
f 919 917 928
f 925 919 928
f 925 928 929
f 916 925 929
f 928 923 929
f 919 925 930
f 922 927 930
f 930 927 931
f 924 919 931
f 919 930 931
f 918 920 932
f 921 926 932
f 925 916 933
f 928 917 934
f 923 928 934
f 920 922 936
f 932 920 936
f 921 932 936
f 933 921 936
f 922 933 936
f 917 918 937
f 918 932 937
f 932 926 937
f 934 917 937
f 926 935 937
f 916 929 938
f 929 923 938
f 922 920 939
f 920 924 939
f 927 922 939
f 931 927 939
f 924 931 939
f 922 930 940
f 930 925 940
f 933 922 940
f 925 933 940
f 926 921 941
f 933 916 941
f 921 933 941
f 935 926 941
f 916 938 941
f 938 935 941
f 923 934 942
f 934 937 942
f 937 935 942
f 938 923 942
f 954 943 964
f 945 944 948
f 947 946 948
f 945 948 950
f 946 947 952
f 948 944 953
f 947 948 953
f 951 945 954
f 952 943 954
f 948 946 955
f 949 950 955
f 943 952 957
f 952 947 957
f 950 948 958
f 948 955 958
f 955 950 958
f 951 943 959
f 947 956 959
f 943 957 959
f 957 947 959
f 945 950 960
f 950 949 960
f 949 954 960
f 954 945 960
f 953 944 961
f 947 953 961
f 956 947 961
f 946 952 962
f 954 949 962
f 952 954 962
f 955 946 962
f 949 955 962
f 944 945 963
f 945 951 963
f 951 959 963
f 959 956 963
f 961 944 963
f 956 961 963
f 943 951 964
f 951 954 964
f 980 971 985
f 967 966 968
f 967 969 972
f 967 968 973
f 969 967 973
f 970 971 974
f 968 966 975
f 971 970 975
f 968 970 977
f 973 968 977
f 969 973 977
f 965 974 978
f 974 971 978
f 971 976 978
f 972 969 979
f 974 965 979
f 976 971 980
f 976 980 981
f 966 967 981
f 967 972 981
f 972 976 981
f 980 966 981
f 970 968 982
f 968 975 982
f 975 970 982
f 970 974 983
f 977 970 983
f 969 977 983
f 979 969 983
f 974 979 983
f 976 972 984
f 965 978 984
f 978 976 984
f 979 965 984
f 972 979 984
f 975 966 985
f 971 975 985
f 966 980 985
f 986 996 1003
f 988 987 991
f 991 987 992
f 990 993 994
f 987 988 995
f 992 987 995
f 988 993 995
f 994 991 997
f 990 994 997
f 986 990 998
f 989 992 998
f 995 986 998
f 992 995 998
f 991 989 999
f 990 997 999
f 997 991 999
f 998 990 999
f 989 998 999
f 989 991 1000
f 992 989 1000
f 991 992 1000
f 988 991 1001
f 993 988 1001
f 991 994 1001
f 994 993 1001
f 986 995 1002
f 995 993 1002
f 993 996 1002
f 996 986 1002
f 990 986 1003
f 993 990 1003
f 996 993 1003
f 1018 1012 1021
f 1009 1005 1010
f 1008 1009 1010
f 1009 1008 1013
f 1004 1009 1013
f 1008 1010 1013
f 1006 1005 1014
f 1005 1009 1014
f 1009 1007 1014
f 1007 1012 1014
f 1005 1006 1015
f 1010 1005 1015
f 1006 1011 1015
f 1013 1010 1015
f 1012 1007 1016
f 1004 1013 1017
f 1016 1004 1017
f 1011 1006 1018
f 1006 1014 1018
f 1014 1012 1018
f 1007 1009 1019
f 1009 1004 1019
f 1004 1016 1019
f 1016 1007 1019
f 1015 1011 1020
f 1013 1015 1020
f 1017 1013 1020
f 1011 1017 1020
f 1012 1016 1021
f 1017 1011 1021
f 1016 1017 1021
f 1011 1018 1021
f 1038 1023 1046
f 1024 1023 1025
f 1024 1025 1030
f 1025 1026 1030
f 1029 1027 1031
f 1031 1027 1032
f 1024 1026 1033
f 1025 1023 1034
f 1027 1029 1034
f 1024 1033 1035
f 1033 1028 1035
f 1026 1029 1036
f 1029 1031 1036
f 1032 1027 1038
f 1034 1023 1038
f 1027 1034 1038
f 1026 1025 1039
f 1029 1026 1039
f 1025 1029 1039
f 1033 1022 1040
f 1028 1033 1040
f 1022 1037 1040
f 1037 1028 1040
f 1022 1036 1041
f 1036 1031 1041
f 1037 1022 1041
f 1031 1037 1041
f 1022 1033 1042
f 1033 1026 1042
f 1026 1036 1042
f 1036 1022 1042
f 1031 1032 1043
f 1032 1035 1043
f 1035 1028 1043
f 1028 1037 1043
f 1037 1031 1043
f 1026 1024 1044
f 1024 1030 1044
f 1030 1026 1044
f 1029 1025 1045
f 1025 1034 1045
f 1034 1029 1045
f 1023 1024 1046
f 1024 1035 1046
f 1035 1032 1046
f 1032 1038 1046
f 1065 1055 1067
f 1049 1048 1052
f 1048 1050 1054
f 1052 1048 1055
f 1050 1051 1056
f 1048 1049 1058
f 1050 1048 1058
f 1054 1050 1059
f 1050 1056 1059
f 1052 1055 1060
f 1056 1052 1060
f 1047 1056 1060
f 1048 1054 1061
f 1055 1048 1061
f 1049 1052 1062
f 1056 1051 1062
f 1052 1056 1062
f 1058 1049 1062
f 1051 1058 1062
f 1054 1057 1063
f 1061 1054 1063
f 1053 1061 1063
f 1051 1050 1064
f 1050 1058 1064
f 1058 1051 1064
f 1057 1047 1065
f 1060 1055 1065
f 1047 1060 1065
f 1056 1047 1066
f 1047 1057 1066
f 1057 1054 1066
f 1054 1059 1066
f 1059 1056 1066
f 1061 1053 1067
f 1055 1061 1067
f 1063 1057 1067
f 1053 1063 1067
f 1057 1065 1067
f 1079 1085 1087
f 1069 1070 1073
f 1069 1072 1074
f 1072 1069 1075
f 1069 1073 1075
f 1072 1068 1077
f 1074 1072 1077
f 1068 1072 1078
f 1072 1071 1078
f 1071 1073 1078
f 1073 1076 1078
f 1070 1069 1080
f 1074 1079 1080
f 1079 1076 1080
f 1073 1070 1081
f 1076 1073 1081
f 1070 1080 1081
f 1080 1076 1081
f 1068 1078 1082
f 1078 1076 1082
f 1071 1072 1083
f 1075 1071 1083
f 1072 1075 1083
f 1073 1071 1084
f 1071 1075 1084
f 1075 1073 1084
f 1077 1068 1085
f 1074 1077 1085
f 1079 1074 1085
f 1069 1074 1086
f 1080 1069 1086
f 1074 1080 1086
f 1076 1079 1087
f 1068 1082 1087
f 1082 1076 1087
f 1085 1068 1087
f 1105 1097 1106
f 1092 1088 1093
f 1090 1089 1095
f 1088 1092 1096
f 1090 1095 1098
f 1095 1091 1098
f 1093 1088 1099
f 1094 1098 1099
f 1099 1098 1100
f 1092 1093 1100
f 1091 1095 1100
f 1098 1091 1100
f 1093 1099 1100
f 1100 1095 1101
f 1089 1092 1101
f 1095 1089 1101
f 1092 1100 1101
f 1094 1097 1102
f 1097 1090 1102
f 1090 1098 1102
f 1098 1094 1102
f 1089 1090 1103
f 1092 1089 1103
f 1096 1092 1103
f 1090 1097 1104
f 1103 1090 1104
f 1096 1103 1104
f 1088 1096 1105
f 1104 1097 1105
f 1096 1104 1105
f 1097 1094 1106
f 1099 1088 1106
f 1094 1099 1106
f 1088 1105 1106
f 1111 1119 1129
f 1108 1109 1115
f 1107 1110 1116
f 1115 1109 1116
f 1109 1108 1118
f 1110 1114 1120
f 1116 1110 1120
f 1115 1116 1120
f 1110 1107 1121
f 1114 1110 1121
f 1107 1117 1121
f 1117 1119 1121
f 1118 1122 1123
f 1116 1109 1123
f 1113 1116 1123
f 1109 1118 1123
f 1122 1113 1123
f 1118 1108 1124
f 1112 1118 1124
f 1108 1119 1124
f 1111 1115 1125
f 1119 1111 1125
f 1120 1114 1125
f 1115 1120 1125
f 1114 1121 1125
f 1121 1119 1125
f 1117 1112 1126
f 1119 1117 1126
f 1112 1124 1126
f 1124 1119 1126
f 1112 1117 1127
f 1118 1112 1127
f 1117 1122 1127
f 1122 1118 1127
f 1107 1116 1128
f 1116 1113 1128
f 1117 1107 1128
f 1113 1122 1128
f 1122 1117 1128
f 1115 1111 1129
f 1108 1115 1129
f 1119 1108 1129
f 1136 1140 1146
f 1132 1131 1133
f 1134 1131 1135
f 1133 1136 1137
f 1134 1135 1138
f 1136 1133 1139
f 1131 1132 1140
f 1135 1131 1140
f 1138 1130 1141
f 1134 1138 1141
f 1130 1139 1141
f 1133 1131 1142
f 1131 1134 1142
f 1142 1134 1143
f 1139 1133 1143
f 1134 1141 1143
f 1141 1139 1143
f 1133 1142 1143
f 1135 1136 1144
f 1130 1138 1144
f 1138 1135 1144
f 1136 1139 1144
f 1139 1130 1144
f 1136 1135 1145
f 1135 1140 1145
f 1140 1136 1145
f 1132 1133 1146
f 1133 1137 1146
f 1137 1136 1146
f 1140 1132 1146
f 1159 1151 1162
f 1149 1148 1152
f 1149 1152 1154
f 1152 1147 1154
f 1152 1148 1155
f 1153 1150 1156
f 1151 1153 1156
f 1150 1154 1157
f 1154 1147 1157
f 1156 1150 1157
f 1153 1148 1158
f 1150 1153 1158
f 1147 1152 1159
f 1152 1155 1159
f 1155 1151 1159
f 1148 1153 1160
f 1153 1151 1160
f 1155 1148 1160
f 1151 1155 1160
f 1148 1149 1161
f 1149 1154 1161
f 1154 1150 1161
f 1158 1148 1161
f 1150 1158 1161
f 1151 1156 1162
f 1157 1147 1162
f 1156 1157 1162
f 1147 1159 1162
f 1171 1175 1179
f 1167 1164 1168
f 1166 1163 1169
f 1163 1166 1170
f 1165 1164 1171
f 1164 1167 1171
f 1166 1169 1172
f 1165 1171 1172
f 1164 1165 1173
f 1168 1164 1173
f 1173 1169 1174
f 1169 1163 1174
f 1168 1173 1174
f 1171 1167 1175
f 1165 1172 1176
f 1172 1169 1176
f 1173 1165 1176
f 1169 1173 1176
f 1167 1168 1177
f 1168 1174 1177
f 1175 1167 1177
f 1175 1177 1178
f 1163 1170 1178
f 1174 1163 1178
f 1170 1175 1178
f 1177 1174 1178
f 1170 1166 1179
f 1166 1172 1179
f 1172 1171 1179
f 1175 1170 1179
f 1199 1188 1200
f 1185 1183 1186
f 1181 1186 1190
f 1181 1182 1191
f 1185 1186 1191
f 1186 1181 1191
f 1185 1180 1192
f 1184 1187 1192
f 1190 1184 1192
f 1183 1185 1193
f 1187 1183 1193
f 1185 1192 1193
f 1192 1187 1193
f 1187 1184 1194
f 1184 1190 1194
f 1190 1186 1194
f 1186 1183 1195
f 1183 1187 1195
f 1187 1194 1195
f 1194 1186 1195
f 1188 1190 1196
f 1192 1180 1196
f 1190 1192 1196
f 1189 1185 1197
f 1182 1189 1197
f 1191 1182 1197
f 1185 1191 1197
f 1180 1185 1198
f 1185 1189 1198
f 1182 1181 1199
f 1189 1182 1199
f 1181 1190 1199
f 1190 1188 1199
f 1196 1180 1200
f 1188 1196 1200
f 1180 1198 1200
f 1198 1189 1200
f 1189 1199 1200
f 1208 1217 1221
f 1205 1207 1209
f 1202 1203 1210
f 1207 1204 1211
f 1201 1209 1211
f 1209 1207 1211
f 1208 1202 1213
f 1202 1210 1213
f 1210 1206 1213
f 1203 1202 1214
f 1204 1207 1214
f 1205 1209 1215
f 1210 1203 1215
f 1209 1210 1215
f 1211 1204 1216
f 1201 1211 1216
f 1206 1212 1217
f 1208 1213 1217
f 1213 1206 1217
f 1207 1205 1218
f 1203 1214 1218
f 1214 1207 1218
f 1215 1203 1218
f 1205 1215 1218
f 1202 1208 1219
f 1214 1202 1219
f 1204 1214 1219
f 1216 1204 1219
f 1208 1216 1219
f 1209 1201 1220
f 1206 1210 1220
f 1210 1209 1220
f 1212 1206 1220
f 1201 1212 1220
f 1212 1201 1221
f 1216 1208 1221
f 1201 1216 1221
f 1217 1212 1221
f 1230 1239 1240
f 1227 1223 1229
f 1226 1227 1229
f 1224 1223 1231
f 1223 1227 1231
f 1226 1229 1233
f 1232 1222 1233
f 1228 1232 1233
f 1227 1226 1234
f 1222 1227 1234
f 1233 1222 1234
f 1226 1233 1234
f 1227 1222 1235
f 1231 1227 1235
f 1225 1231 1235
f 1222 1232 1236
f 1235 1222 1236
f 1225 1235 1236
f 1223 1224 1237
f 1224 1228 1237
f 1229 1223 1237
f 1228 1233 1237
f 1233 1229 1237
f 1232 1228 1238
f 1230 1236 1238
f 1236 1232 1238
f 1228 1224 1239
f 1238 1228 1239
f 1230 1238 1239
f 1224 1231 1240
f 1231 1225 1240
f 1225 1236 1240
f 1236 1230 1240
f 1239 1224 1240
f 1258 1247 1265
f 1245 1242 1248
f 1242 1245 1249
f 1242 1249 1251
f 1247 1250 1253
f 1241 1252 1254
f 1252 1246 1254
f 1241 1250 1256
f 1250 1247 1256
f 1252 1241 1256
f 1242 1243 1257
f 1248 1242 1257
f 1247 1253 1257
f 1253 1248 1257
f 1246 1252 1258
f 1255 1246 1258
f 1256 1247 1258
f 1252 1256 1258
f 1244 1245 1259
f 1245 1248 1259
f 1248 1253 1259
f 1241 1245 1260
f 1245 1244 1260
f 1250 1241 1260
f 1244 1250 1260
f 1246 1251 1261
f 1251 1249 1261
f 1249 1254 1261
f 1254 1246 1261
f 1243 1242 1262
f 1242 1251 1262
f 1251 1246 1262
f 1246 1255 1262
f 1255 1243 1262
f 1245 1241 1263
f 1249 1245 1263
f 1241 1254 1263
f 1254 1249 1263
f 1250 1244 1264
f 1253 1250 1264
f 1244 1259 1264
f 1259 1253 1264
f 1243 1255 1265
f 1257 1243 1265
f 1247 1257 1265
f 1255 1258 1265

